<svg width="16" height="12" viewBox="0 0 16 12" fill="none" xmlns="http://www.w3.org/2000/svg">
<path d="M15.6703 10.1223C15.486 10.8565 14.9455 11.4353 14.2602 11.633C13.0081 12 7.99982 12 7.99982 12C7.99982 12 2.9917 12 1.73965 11.6469C1.06748 11.4494 0.513868 10.8564 0.329493 10.1223C0 8.78121 0 6 0 6C0 6 0 3.20477 0.329493 1.87771C0.514063 1.14357 1.0543 0.564778 1.73975 0.367069C3.00489 0 8.00002 0 8.00002 0C8.00002 0 13.0081 0 14.2602 0.353051C14.9456 0.550656 15.486 1.12945 15.6705 1.86359C15.9999 3.20477 15.9999 5.98588 15.9999 5.98588C15.9999 5.98588 16.0131 8.78121 15.6703 10.1223ZM6.40529 3.43062V8.56938L10.5699 6L6.40529 3.43062Z" fill="#6A6A6A"/>
</svg>
