<svg width="90" height="91" fill="none" xmlns="http://www.w3.org/2000/svg"><path d="M75.687 63.532H51.633v-8.177c8.71-2.726 14.93-10.904 14.93-20.549 0-11.951-9.538-21.597-21.358-21.597s-21.358 9.646-21.358 21.597c0 9.645 6.22 17.823 14.93 20.549v8.177H14.515c-1.036 0-2.073.839-2.073 2.097 0 1.048.83 2.097 2.073 2.097h26.128c1.037 0 2.074-.84 2.074-2.097v-9.436c.83 0 1.659.21 2.488.21.83 0 1.659 0 2.488-.21v9.436c0 1.048.83 2.097 2.074 2.097h26.128c1.037 0 2.073-.84 2.073-2.097-.414-1.049-1.244-2.097-2.28-2.097zM27.58 34.806c0-9.645 7.88-17.613 17.419-17.613 9.538 0 17.418 7.968 17.418 17.613S54.536 52.42 44.998 52.42c-9.539 0-17.419-7.968-17.419-17.613z" fill="#EE741D"/><path d="M49.56 32.71h-5.807l3.318-7.34c.415-1.048 0-2.306-1.037-2.725-1.036-.42-2.28 0-2.695 1.048l-4.562 10.065c-.208.629-.208 1.468.207 1.887.415.629 1.037 1.048 1.659 1.048h5.806l-3.318 7.339c-.414 1.048 0 2.307 1.037 2.726.207.21.622.21.83.21.829 0 1.451-.42 1.866-1.259l4.562-10.064c.207-.63.207-1.468-.208-1.887-.414-.839-1.036-1.049-1.659-1.049z" fill="#EE741D"/><path d="M75.687 0H14.308C6.428 0 0 6.5 0 14.468v62.064C0 84.5 6.428 91 14.308 91h61.38c7.879 0 14.307-6.5 14.307-14.468V14.468C90.202 6.5 83.775 0 75.687 0zm10.368 76.742c0 5.661-4.562 10.484-10.368 10.484H14.308c-5.599 0-10.368-4.613-10.368-10.484V14.677c0-5.66 4.562-10.483 10.368-10.483h61.38c5.598 0 10.367 4.612 10.367 10.483v62.065z" fill="#EE741D"/><path d="M75.687 72.758H14.516c-1.037 0-2.074.838-2.074 2.097 0 1.048.83 2.096 2.073 2.096h61.172c1.037 0 2.074-.838 2.074-2.096-.207-1.259-1.037-2.097-2.074-2.097z" fill="#EE741D"/></svg>