<svg width="72" height="89" fill="none" xmlns="http://www.w3.org/2000/svg"><path d="M69.616 29.772h-2.702C65.166 13.074 50.861 0 33.536 0 14.94 0 0 14.965 0 33.237v8.349c0 1.102.954 2.048 2.066 2.048h16.848v20.32c0 .63.318 1.26.954 1.733l34.648 22.998c.318.157.795.315 1.113.315 6.517 0 11.762-5.198 11.762-11.657v-24.1h2.543c1.112 0 2.066-.946 2.066-2.048V31.662c-.318-1.103-1.272-1.89-2.384-1.89zM4.132 33.237c0-16.067 13.193-29.141 29.404-29.141 6.2 0 11.921 1.89 16.69 5.198-1.113.787-2.385 1.733-3.498 2.678-3.814-2.363-8.423-3.623-13.192-3.623-13.986 0-25.271 11.341-25.271 25.046v.157c0 1.103.954 2.048 2.066 2.048h8.583v4.096H4.132v-6.459zm15.894-1.89h-7.629c.954-10.712 10.014-19.218 21.14-19.218 3.496 0 6.675.788 9.536 2.206-6.676 5.04-14.305 10.553-23.047 17.012zm42.915 45.996c0 3.938-3.02 7.246-6.994 7.404l-33.06-22.053v-28.67c12.08-8.82 30.04-22.052 30.676-22.525 4.927 4.568 8.424 10.87 9.219 17.958h-2.385c-1.112 0-2.066.945-2.066 2.047v19.533c0 1.103.954 2.048 2.066 2.048h2.544v24.258zm4.609-28.039h-5.086V33.867h5.086v15.437z" fill="#EE741D"/><path d="M33.536 37.963c-1.907 0-3.497 1.575-3.497 3.465s1.59 3.466 3.497 3.466c1.908 0 3.497-1.575 3.497-3.466 0-1.89-1.59-3.465-3.497-3.465z" fill="#EE741D"/></svg>