<svg width="86" height="85" fill="none" xmlns="http://www.w3.org/2000/svg"><path d="M84.634 38.689l-13.012-2.445c-.867-2.59-3.325-4.315-6.217-4.315h-8.819v-5.753l8.241-2.445c6.072-1.726 6.795-5.465 6.795-8.486V1.87c0-1.007-.867-1.87-1.88-1.87H30.419c-1.012 0-1.88.863-1.88 1.87v13.375c0 3.02.723 6.76 6.795 8.486l8.241 2.445v5.753H15.816c-.868 0-1.59.575-1.88 1.294l-2.169 7.767h-6.65v-2.157c0-1.007-.868-1.87-1.88-1.87s-1.88.863-1.88 1.87v7.766c0 1.007.868 1.87 1.88 1.87s1.88-.863 1.88-1.87v-2.013h5.638L.057 82.698c-.145.575 0 1.15.289 1.582.289.431.867.719 1.446.719h18.505c3.326 0 4.482-2.301 5.06-4.602 0-.288.145-.432 0-.72l-1.59-14.957 3.181-11.219h2.892c-.145 3.165.144 8.918 3.903 13.952.434.43.867.719 1.446.719.434 0 .867-.144 1.157-.432.867-.575 1.012-1.87.289-2.589-3.181-4.027-3.326-9.06-3.181-11.65h31.662c2.892 0 5.35-1.87 6.217-4.314l13.012-2.445c.867-.144 1.59-1.007 1.59-1.87V40.27c.29-.72-.434-1.438-1.3-1.582zM68.008 3.739v4.027c-2.024.432-3.18 1.439-4.193 2.302-1.157 1.006-1.88 1.582-3.759 1.582-1.735 0-2.602-.72-3.759-1.582-1.301-1.15-3.036-2.59-6.072-2.59-3.18 0-4.771 1.44-6.072 2.59-1.157 1.006-1.88 1.582-3.76 1.582-1.734 0-2.602-.72-3.758-1.582-1.012-.863-2.314-1.87-4.193-2.301V3.739h35.566zM36.49 20.135c-3.759-1.15-4.048-2.732-4.048-4.89V11.65c.723.287 1.157.719 1.88 1.294 1.3 1.15 3.035 2.589 6.072 2.589 3.18 0 4.77-1.438 6.072-2.589 1.156-1.007 1.88-1.582 3.759-1.582 1.735 0 2.602.72 3.759 1.582 1.301 1.15 3.036 2.589 6.072 2.589 3.18 0 4.771-1.438 6.072-2.589.579-.575 1.157-1.007 1.88-1.294v3.595c0 2.158-.29 3.74-4.048 4.89l-9.687 2.877c-.867.287-1.301 1.007-1.301 1.726v7.047h-5.494v-7.047c0-.863-.578-1.582-1.301-1.726l-9.687-2.877zm28.915 29.916h-5.783v-3.308c0-1.007-.867-1.87-1.88-1.87-1.011 0-1.879.863-1.879 1.87v3.308h-3.759v-3.308c0-1.007-.867-1.87-1.88-1.87-1.011 0-1.879.863-1.879 1.87v3.308h-3.759v-3.308c0-1.007-.867-1.87-1.88-1.87-1.011 0-1.879.863-1.879 1.87v3.308H25.791c-.867 0-1.59.575-1.88 1.294L20.298 64.29c0 .288-.144.432 0 .72l1.59 14.957c-.433 1.438-.722 1.438-1.3 1.438H4.539l12.867-45.88h48c1.59 0 2.89 1.295 2.89 2.877v8.63c0 1.725-1.3 3.02-2.89 3.02zm17.06-6.472l-10.264 2.013v-5.465l10.264 2.013v1.439z" fill="#EE741D"/></svg>