<svg width="92" height="92" fill="none" xmlns="http://www.w3.org/2000/svg"><path d="M22.893 61.826h-5.936l3.392-7.386c.424-1.055 0-2.32-1.06-2.743-1.06-.422-2.332 0-2.756 1.055L11.87 62.881c-.212.633-.212 1.477.212 1.899.424.633 1.06 1.055 1.696 1.055h5.935l-3.391 7.385c-.424 1.055 0 2.321 1.06 2.743.211.211.635.211.847.211.848 0 1.484-.422 1.908-1.266L24.8 64.78c.212-.633.212-1.477-.212-1.9-.424-.632-1.06-1.054-1.695-1.054z" fill="#EE741D"/><path d="M29.252 0H7.207C3.179 0 0 3.165 0 7.174v8.23c0 1.055.848 2.11 2.12 2.11h6.995v18.569H2.12c-1.06 0-2.12.844-2.12 2.11V89.89C0 90.945.848 92 2.12 92h32.43c1.06 0 2.12-.844 2.12-2.11V38.193c0-1.055-.847-2.11-2.12-2.11h-6.994v-18.57h6.995c1.06 0 2.12-.843 2.12-2.11V7.175C36.458 3.165 33.278 0 29.25 0zm2.967 87.569H4.027V40.092H32.22v47.477zm-9.114-51.697h-9.963v-18.57h9.963v18.57zm9.114-22.578H4.027v-6.12c0-1.688 1.272-2.954 2.968-2.954h8.903v2.532c0 1.055.848 2.11 2.12 2.11 1.06 0 2.119-.844 2.119-2.11V4.22h8.903c1.695 0 2.967 1.266 2.967 2.954v6.12h.212zM79.276 0h-2.331c-1.06 0-2.12.844-2.12 2.11v22.578c0 1.266-.848 2.11-2.12 2.11h-8.267c-1.271 0-2.12-.844-2.12-2.11V2.11c0-1.055-.847-2.11-2.119-2.11h-2.332C50.872 0 45.15 5.697 45.15 12.66v18.358c0 5.698 3.816 10.55 9.115 12.239v16.459c0 1.055.848 2.11 2.12 2.11h2.967V89.89c0 1.055.848 2.11 2.12 2.11h14.202c1.06 0 2.12-.844 2.12-2.11V61.826h2.967c1.06 0 2.12-.844 2.12-2.11v-16.46c5.299-1.476 9.114-6.54 9.114-12.238V12.661C92.206 5.697 86.484 0 79.276 0zm-5.51 87.569h-9.964V61.615h9.963v25.954zm14.201-56.55c0 4.22-3.18 7.807-7.419 8.44-1.06.21-1.696 1.055-1.696 2.11v6.33h-2.967c-1.06 0-2.12.844-2.12 2.11 0 1.055.848 2.11 2.12 2.11h2.967v5.697H58.715v-5.908h2.968c1.06 0 2.12-.844 2.12-2.11 0-1.055-.848-2.11-2.12-2.11h-2.968v-6.33c0-1.055-.848-1.9-1.696-2.11-4.239-.633-7.418-4.22-7.418-8.44V12.45c0-4.643 3.815-8.652 8.69-8.652h.212v20.468c0 3.376 2.756 6.33 6.36 6.33h8.266c3.392 0 6.36-2.743 6.36-6.33V3.798h.211c4.663 0 8.69 3.798 8.69 8.652v18.568h-.423z" fill="#EE741D"/></svg>