<svg width="91" height="81" fill="none" xmlns="http://www.w3.org/2000/svg"><path d="M80.87 60h-1.71V32.714c0-.571-.286-1-.57-1.428l-4.993-5c-.428-.429-.856-.572-1.426-.572H56.053c-.57 0-.998.286-1.426.572l-4.992 5c-.428.428-.57.857-.57 1.428v19h-4.993L41.505 40.43c-.143-1-.999-1.572-1.997-1.572h-7.845L23.391 1.571C23.248.571 22.393 0 21.394 0H2.14C1 0 .143.857.143 2s.855 2 1.996 2h11.41v44C5.849 49.429 0 56.286 0 64.286 0 73.429 7.417 81 16.688 81c6.133 0 11.552-3.429 14.405-8.429h5.705V79c0 1.143.856 2 1.997 2H89c1.141 0 1.997-.857 1.997-2v-8.572C91.139 64.715 86.575 60 80.87 60zm-10.697 0V47.857c0-1.143-.856-2-1.997-2-1.14 0-1.996.857-1.996 2V60H61.9V47.857c0-1.143-.855-2-1.996-2s-1.997.857-1.997 2V60H53.2V40.572h21.965V60h-4.992zM53.058 33.571l3.85-3.857h14.263l3.851 3.857v2.858H53.058V33.57zm-25.103 7.715c.143 1 .998 1.571 1.997 1.571h7.844l1.997 8.857H27.527c-2.71-2.285-6.133-3.714-9.841-4V4h1.997l8.272 37.286zM16.688 76.857c-6.847 0-12.552-5.571-12.552-12.571 0-6.857 5.563-12.572 12.552-12.572 6.846 0 12.55 5.572 12.55 12.572 0 7-5.562 12.571-12.55 12.571zm20.395-8.428h-4.136c.285-1.286.57-2.715.57-4.143 0-3.143-.855-6-2.281-8.429h17.97V60h-1.71c-5.42 0-9.557 3.714-10.413 8.429zm3.851 8.428v-6.571C40.934 66.857 43.577 64 47 64h34c3 0 4.862 2 5.575 4.429H67.463c-1.14 0-1.997.857-1.997 2 0 1.142.856 2 1.997 2h19.54v4.285H40.934v.143z" fill="#EE741D"/><path d="M16.687 56c-4.564 0-8.415 3.714-8.415 8.429 0 4.714 3.708 8.428 8.415 8.428 4.564 0 8.415-3.714 8.415-8.428 0-4.715-3.708-8.429-8.415-8.429zm0 12.571c-2.282 0-4.279-1.857-4.279-4.285C12.408 62 14.263 60 16.688 60c2.281 0 4.278 1.857 4.278 4.286 0 2.428-1.854 4.285-4.279 4.285z" fill="#EE741D"/></svg>