<svg width="95" height="77" fill="none" xmlns="http://www.w3.org/2000/svg"><path d="M93.067 4.847h-1.933v-.554c0-.97-.69-1.662-1.519-1.939L80.363 0H63.656c-1.795 0-3.453.692-4.833 1.939l-9.666 9.694c-1.243-1.108-2.9-1.8-4.557-1.8-1.795 0-3.452.692-4.833 1.939L1.933 49.718C.69 50.964 0 52.764 0 54.565c0 1.8.69 3.462 1.933 4.847l16.984 17.034c.414.416.829.554 1.38.554.553 0 .968-.277 1.382-.554l3.59-3.6c.414-.416.69-1.109.552-1.801l-1.795-8.31L36.177 50.55l8.285 1.8h.414c.553 0 .967-.138 1.381-.554l20.16-19.943c.414-.415.552-.83.552-1.384 0-.554-.276-.97-.552-1.385l-7.594-7.617 7.732-7.756h13.808l9.252-2.354c.828-.277 1.519-.97 1.519-1.939v-.554h1.933c1.105 0 1.933-.83 1.933-1.939 0-1.107-.828-2.077-1.933-2.077zM44.324 48.333l-4.695-.97 8.562-8.586 4.694.97-8.56 8.586zm12.013-11.91l-8.285-1.8c-.69-.14-1.38 0-1.795.553l-25.683 25.76c-.414.415-.69 1.107-.552 1.8l1.795 8.309-1.381 1.385L4.833 56.78c-.552-.553-.829-1.246-.829-1.938 0-.693.277-1.385.829-1.94l9.666-9.693 3.314 3.323c.414.416.966.554 1.38.554.553 0 .967-.138 1.381-.554.829-.83.829-2.077 0-2.77L17.26 40.44l2.762-2.77 3.314 3.324c.414.415.966.554 1.38.554.553 0 .967-.139 1.381-.554.829-.831.829-2.078 0-2.77L22.783 34.9l2.762-2.77 3.314 3.324c.414.416.967.554 1.38.554.415 0 .967-.138 1.382-.554.828-.83.828-2.077 0-2.77l-3.314-3.323L42.39 15.234c.552-.554 1.243-.831 1.933-.831s1.381.277 1.933.83l16.018 15.235-5.938 5.955zM71.388 9.694h-5.8c-.552 0-.966.277-1.38.554l-8.285 8.31-4.004-4.017 9.665-9.694c.553-.554 1.243-.83 1.933-.83h7.733l.138 5.677zM87.13 7.755l-7.456 1.94h-4.142v-5.54h4.142l7.456 1.939v1.661z" fill="#EE741D"/><path d="M41.977 22.99c-1.519 1.523-1.519 4.154 0 5.677.69.693 1.795 1.108 2.762 1.108.966 0 2.07-.415 2.761-1.108 1.52-1.523 1.52-4.155 0-5.678-.69-.692-1.795-1.108-2.761-1.108-.967-.138-1.934.277-2.762 1.108z" fill="#EE741D"/></svg>