<svg width="88" height="81" fill="none" xmlns="http://www.w3.org/2000/svg"><path d="M62.617 25.915c-1.115 0-2.231.135-3.347.27V12.483C59.27 5.562 53.552 0 46.44 0H12.83C5.718 0 0 5.563 0 12.482V49.93c0 1.085.837 1.9 1.952 1.9h9.344c.558 0 1.116-.272 1.534-.68l3.068-3.527h21.616c-.139 1.086-.278 2.035-.278 3.12 0 8.684 4.741 16.418 11.714 20.895H37.793v-1.22c0-.95-.697-1.63-1.534-1.9l-9.901-2.307H1.952c-1.115 0-1.952.814-1.952 1.9V79.1C0 80.185.837 81 1.952 81h24.406l9.901-2.306c.837-.272 1.535-.95 1.535-1.9v-1.221h24.823C76.703 75.573 88 64.447 88 50.879c.14-13.839-11.296-24.964-25.382-24.964zM33.75 75.165l-8.089 1.9H3.905V70.01H25.66l8.09 1.9v3.256zM12.83 3.8h33.61c4.88 0 8.925 3.799 8.925 8.683v.95H4.045v-.95C3.904 7.734 7.948 3.8 12.83 3.8zm1.953 39.754c-.558 0-1.116.271-1.534.678L10.18 47.76H3.905V17.23h51.32v30.53H48.95l-3.068-3.528c-.418-.407-.976-.678-1.534-.678H14.783zm47.834 27.95c-11.854 0-21.477-9.362-21.477-20.895 0-1.085.14-2.17.28-3.12h1.952l3.068 3.527c.418.407.976.678 1.534.678h9.344c1.115 0 1.952-.814 1.952-1.899V30.121c1.116-.136 2.231-.272 3.347-.272 11.854 0 21.477 9.362 21.477 20.895 0 11.397-9.623 20.758-21.477 20.758z" fill="#EE741D"/><path d="M27.892 24.558H16.038c-1.116 0-1.952.814-1.952 1.9 0 1.085.836 1.899 1.952 1.899h11.854c1.116 0 1.952-.814 1.952-1.9 0-1.085-.836-1.9-1.952-1.9zm0 7.869H16.038c-1.116 0-1.952.814-1.952 1.9 0 1.085.836 1.9 1.952 1.9h11.854c1.116 0 1.952-.815 1.952-1.9 0-.95-.836-1.9-1.952-1.9zm13.248-5.834c-2.23 0-4.044 1.764-4.044 3.935 0 2.17 1.813 3.934 4.045 3.934 2.23 0 4.044-1.764 4.044-3.934 0-2.171-1.813-3.935-4.044-3.935z" fill="#EE741D"/></svg>