<svg width="81" height="106" fill="none" xmlns="http://www.w3.org/2000/svg"><path d="M40.5 24.51C18.04 24.51 0 42.838 0 65.256 0 87.852 18.216 106 40.5 106 62.96 106 81 87.674 81 65.255c0-22.418-18.216-40.744-40.5-40.744zm26.882 64.765l-5.306-5.338c3.714-4.448 6.19-10.141 6.721-16.19h7.428c-.354 8.184-3.714 15.657-8.843 21.528zM4.422 67.746h7.427c.53 6.228 3.007 11.743 6.72 16.191l-5.305 5.338c-4.952-5.871-8.312-13.344-8.843-21.529zm9.019-26.154l5.306 5.337c-3.714 4.448-6.19 10.142-6.72 16.191h-7.43c.354-8.184 3.714-15.835 8.843-21.528zM40.5 76.998c-6.367 0-11.496-5.16-11.496-11.565 0-6.405 5.13-11.565 11.496-11.565 6.367 0 11.496 5.16 11.496 11.565-.177 6.406-5.306 11.565-11.496 11.565zm9.55-24.553c-2.122-1.601-4.598-2.669-7.25-3.025v-8.006a24.782 24.782 0 0112.91 5.337l-5.66 5.694zM38.2 49.42c-2.652.356-5.305 1.424-7.25 3.025l-5.66-5.694c3.538-3.024 7.959-4.982 12.91-5.337v8.006zm-10.61 6.405c-1.592 2.136-2.653 4.627-3.007 7.295h-7.958a25.093 25.093 0 015.305-12.988l5.66 5.693zm-3.184 11.921c.354 2.67 1.415 5.338 3.007 7.295l-5.66 5.694c-3.006-3.559-4.952-8.007-5.305-12.989h7.958zm6.367 10.676c2.122 1.601 4.598 2.669 7.251 3.025v8.006a24.782 24.782 0 01-12.91-5.338l5.659-5.693zm11.85 3.025c2.652-.356 5.305-1.424 7.25-3.025l5.66 5.693c-3.537 3.025-7.959 4.982-12.91 5.338v-8.007zm10.61-6.406c1.592-2.135 2.653-4.626 3.007-7.295h7.96a25.093 25.093 0 01-5.306 12.989l-5.66-5.694zm3.184-11.92c-.354-2.67-1.415-5.338-3.007-7.296l5.66-5.693c3.007 3.558 4.952 8.007 5.306 12.988h-7.959zm2.476-19.572c-4.421-3.737-10.08-6.228-16.094-6.761v-7.473c8.136.534 15.74 3.736 21.4 8.896l-5.306 5.338zm-20.692-6.761c-6.19.533-11.673 3.024-16.094 6.76l-5.306-5.337c5.837-5.16 13.265-8.362 21.4-8.896v7.473zm-16.27 50.53c4.42 3.736 10.08 6.227 16.093 6.761v7.473c-8.135-.534-15.74-3.737-21.4-8.896l5.306-5.338zm20.691 6.761c6.19-.534 11.673-3.025 16.094-6.761l5.306 5.338c-5.836 5.16-13.264 8.362-21.4 8.896v-7.473zM68.797 63.12c-.53-6.227-3.007-11.743-6.72-16.19l5.305-5.338c5.129 5.871 8.312 13.344 8.843 21.528h-7.428zM9.136 19.404c1.016 0 2.03-.96 2.03-2.08V8.208c0-1.12-.76-2.08-2.03-2.08-1.27 0-2.03 1.12-2.03 2.24v8.958c0 1.28 1.21 2.08 2.03 2.08zm16.243 0c1.093 0 2.03-.925 2.03-2.004V5.068c0-1.08-.937-2.004-2.03-2.004-1.093 0-2.03.925-2.03 2.004v12.178c0 1.233.78 2.158 2.03 2.158zm15.227 0c1.093 0 2.03-.924 2.03-2.002v-15.4C42.636.924 41.7 0 40.606 0c-1.093 0-2.03.924-2.03 2.002v15.4c0 1.078.937 2.002 2.03 2.002zm15.227 0c1.094 0 2.03-.925 2.03-2.004V5.068c0-1.08-.936-2.004-2.03-2.004-1.093 0-2.03.925-2.03 2.004v12.178c0 1.233.781 2.158 2.03 2.158zm15.227 0c1.094 0 2.031-.96 2.031-2.08V8.208c0-1.12-.937-2.08-2.03-2.08-1.094 0-2.03.96-2.03 2.08v8.958c0 1.28.936 2.24 2.03 2.24z" fill="#EE741D"/></svg>