<svg width="76" height="76" fill="none" xmlns="http://www.w3.org/2000/svg"><path d="M8 28.762h14.087c2.26 4.183 5.74 6.798 9.74 6.798h34.608c5.391 0 9.565-7.844 9.565-17.78S71.826 0 66.435 0H31.826c-4 0-7.478 2.615-9.739 6.798H8c-4.348 0-7.826 4.88-7.826 10.982 0 6.1 3.478 10.982 7.826 10.982zm21.565-18.478c2.261 0 4.348 3.487 4.348 7.496s-2.087 7.495-4.348 7.495H13.74c1.218-1.917 2.087-4.532 2.087-7.495s-.87-5.578-2.087-7.496h15.826zm42.957 7.496c0 8.367-3.305 14.293-6.261 14.293h-2.087c1.565-2.091 2.609-4.88 3.304-8.367.174-.871-.521-1.743-1.391-1.917-.87-.174-1.74.523-1.913 1.395-1.044 5.229-3.304 8.89-5.74 8.89h-1.912c1.565-2.092 2.608-4.881 3.304-8.367.174-.872-.522-1.744-1.391-1.918-.87-.174-1.74.523-1.913 1.395-1.044 5.229-3.305 8.89-5.74 8.89H39.13C42.087 28.935 44 23.706 44 17.78S42.087 6.624 39.13 3.486h27.13c2.957 0 6.262 5.927 6.262 14.294zM31.826 3.486c4.87 0 8.87 6.624 8.87 14.294 0 7.67-4 14.293-8.87 14.293-2.087 0-4-1.22-5.565-3.311h3.304c4.348 0 7.826-4.881 7.826-10.982 0-6.101-3.478-10.982-7.826-10.982h-3.304c1.391-2.092 3.304-3.312 5.565-3.312zM8 10.284c2.26 0 4.348 3.487 4.348 7.496S10.26 25.275 8 25.275s-4.348-3.486-4.348-7.495c0-4.01 2.087-7.496 4.348-7.496zM66.26 40.44H31.653c-4 0-7.478 2.615-9.739 6.799H7.826C3.478 47.239 0 52.119 0 58.22s3.478 10.982 7.826 10.982h14.087c2.261 4.183 5.74 6.798 9.74 6.798H66.26c5.391 0 9.565-7.844 9.565-17.78s-4.174-17.78-9.565-17.78zM29.566 50.725c2.261 0 4.348 3.486 4.348 7.495 0 4.01-2.087 7.496-4.348 7.496H13.74c1.218-1.918 2.087-4.533 2.087-7.496s-.87-5.578-2.087-7.495h15.826zM3.652 58.22c0-4.01 2.087-7.495 4.348-7.495 2.26 0 4.348 3.486 4.348 7.495 0 4.01-2.087 7.496-4.348 7.496-2.26 0-4.348-3.487-4.348-7.496zm22.435 10.982h3.304c4.348 0 7.826-4.88 7.826-10.982 0-6.1-3.478-10.981-7.826-10.981h-3.304c1.565-2.092 3.478-3.312 5.565-3.312 4.87 0 8.87 6.623 8.87 14.293 0 7.67-4 14.294-8.87 14.294-2.087 0-4-1.22-5.565-3.312zm40.174 3.312h-2.087c1.565-2.092 2.609-4.881 3.304-8.367.174-.872-.521-1.743-1.391-1.918-.87-.174-1.74.523-1.913 1.395-1.044 5.23-3.304 8.89-5.74 8.89h-1.912c1.565-2.092 2.608-4.881 3.304-8.367.174-.872-.522-1.743-1.391-1.918-.87-.174-1.74.523-1.913 1.395-1.044 5.23-3.305 8.89-5.74 8.89H39.13C42.087 69.376 44 64.147 44 58.22c0-5.926-1.913-11.156-4.87-14.293h27.13c2.957 0 6.262 5.926 6.262 14.293 0 8.367-3.305 14.294-6.261 14.294z" fill="#EE741D"/></svg>