<svg width="92" height="73" fill="none" xmlns="http://www.w3.org/2000/svg"><path d="M32.542 16.883h23.301c1.205 0 2.21-.981 2.21-2.159 0-1.177-1.005-2.158-2.21-2.158H32.542c-1.206 0-2.21.981-2.21 2.158 0 1.178 1.005 2.159 2.21 2.159zm0 8.633h23.301c1.205 0 2.21-.981 2.21-2.158 0-1.178-1.005-2.159-2.21-2.159H32.542c-1.206 0-2.21.981-2.21 2.159 0 1.177 1.005 2.158 2.21 2.158zm25.511 6.475c0-1.177-1.005-2.158-2.21-2.158H32.542c-1.206 0-2.21.98-2.21 2.158s1.005 2.159 2.21 2.159h23.301c1.205-.197 2.21-.981 2.21-2.159zM18.28 46.315c-4.82 0-8.838 3.924-8.838 8.633 0 4.71 4.017 8.634 8.838 8.634 4.821 0 8.838-3.925 8.838-8.634 0-4.709-4.017-8.633-8.838-8.633zm0 12.95c-2.41 0-4.42-1.962-4.42-4.317 0-2.354 2.01-4.317 4.42-4.317s4.42 1.963 4.42 4.317c0 2.355-2.01 4.317-4.42 4.317z" fill="#EE741D"/><path fill-rule="evenodd" clip-rule="evenodd" d="M19.108.014L18.48.008h-8.236C9.04.008 8.036.99 8.036 2.166v37.87C3.214 43.372 0 48.669 0 54.948 0 64.955 8.236 73 18.48 73c7.03 0 13.057-3.728 16.271-9.418h26.716l7.232 8.633c.401.589 1.004.785 1.607.785h14.463c1.205 0 2.21-.981 2.21-2.158V47.885h2.811c1.206 0 2.21-.982 2.21-2.159 0-1.177-1.004-2.158-2.21-2.158h-2.812V31.99h2.812c1.206 0 2.21-.98 2.21-2.158 0-1.177-1.004-2.159-2.21-2.159h-2.812V12.566c0-6.868-5.64-12.552-12.67-12.552H43.877L39.17 0l-.247.014H19.108zM4.218 54.948c0 7.653 6.428 13.735 14.061 13.735 7.834 0 14.062-6.279 14.062-13.735 0-7.652-6.428-13.735-14.062-13.735-7.834 0-14.06 6.28-14.06 13.735zm8.035-17.07c2.009-.59 4.018-.981 6.026-.981 10.245 0 18.48 8.044 18.48 18.051 0 1.57-.2 2.944-.602 4.317H82.56v-40.42l-5.624 3.728v26.685c0 1.177-1.005 2.158-2.21 2.158s-2.21-.98-2.21-2.158V21.395c0-.784.402-1.373 1.005-1.765l9.039-6.083v-.981c0-4.513-3.817-8.241-8.437-8.241h-61.87v33.553zM71.31 68.683h11.25v-5.101H67.092l4.218 5.101z" fill="#EE741D"/></svg>