<svg width="92" height="101" fill="none" xmlns="http://www.w3.org/2000/svg"><path d="M49.338 72.393c2.324 0 4.208-1.895 4.208-4.233 0-2.337-1.884-4.232-4.208-4.232-2.324 0-4.208 1.895-4.208 4.232 0 2.338 1.884 4.233 4.208 4.233zM19.88 70.496c-5.514 0-10.013 4.524-10.013 10.07 0 5.547 4.499 10.071 10.013 10.071s10.012-4.524 10.012-10.07c0-5.4-4.498-10.071-10.012-10.071zm0 16.055c-3.193 0-5.95-2.628-5.95-5.985 0-3.21 2.612-5.984 5.95-5.984 3.192 0 5.95 2.628 5.95 5.984-.146 3.357-2.758 5.985-5.95 5.985z" fill="#EE741D"/><path d="M89.533 60.279h-1.886v-4.525c0-1.167-.871-2.043-2.032-2.043H78.94l-8.416-8.465 8.851-8.904c.436-.437.58-.875.58-1.46v-7.297c0-1.167-.87-2.043-2.03-2.043H55.721L32.65 2.335C31.199.875 29.167 0 27.136 0c-2.177 0-4.063.876-5.515 2.335l-8.996 9.05c-1.451 1.459-2.322 3.502-2.322 5.546 0 2.043.87 4.086 2.322 5.546l5.369 5.4v4.67h-7.981l-6.385-6.421c-.87-.876-2.177-.876-2.902 0-.871.875-.871 2.189 0 2.919L7.69 36.05c.435.437.87.583 1.45.583h8.853V60.57C7.836 61.593 0 70.204 0 80.713 0 91.805 8.997 101 20.17 101c7.836 0 14.657-4.525 17.994-11.093h21.041C59.931 96.184 65.155 101 71.539 101c6.82 0 12.48-5.692 12.48-12.552 0-5.692-3.773-10.509-8.852-11.968v-5.255H86.05c1.161 0 2.032-.875 2.032-2.043v-4.524h1.887c1.16 0 2.031-.876 2.031-2.044-.29-1.46-1.306-2.335-2.467-2.335zM75.748 33.86L58.189 51.52 36.423 29.63h39.325v4.232zM14.22 16.785c0-1.022.435-1.898 1.016-2.627l8.996-9.05c.726-.73 1.597-1.021 2.612-1.021 1.016 0 1.887.438 2.612 1.021l20.17 20.288H21.042l-5.95-5.984c-.435-.584-.87-1.606-.87-2.627zm5.66 79.982c-8.853 0-15.963-7.151-15.963-16.054 0-8.904 7.11-16.055 15.962-16.055s15.962 7.151 15.962 16.055c0 8.757-7.255 16.054-15.962 16.054zm39.034-11.092h-19.59c.435-1.606.58-3.211.58-4.962 0-10.51-7.98-19.12-17.993-20.142v-7.152h14.075c1.161 0 2.032-.876 2.032-2.043 0-1.168-.87-2.044-2.032-2.044H21.912V45.1h4.933c1.161 0 2.032-.876 2.032-2.044 0-1.167-.87-2.043-2.032-2.043h-4.933V29.921h8.561l40.05 40.137v5.984c-5.659.146-10.302 4.233-11.608 9.633zm20.46 2.773c0 4.525-3.772 8.32-8.27 8.32-4.5 0-8.272-3.795-8.272-8.32s3.773-8.32 8.271-8.32c4.644 0 8.271 3.65 8.271 8.32zm4.209-21.601H73.57L61.237 54.44l6.384-6.422 8.997 9.049c.436.438.871.584 1.451.584h5.515v9.195z" fill="#EE741D"/></svg>