<svg width="52" height="51" fill="none" xmlns="http://www.w3.org/2000/svg"><path d="M31.615 25.622a3.896 3.896 0 01-3.142-.128l-17.826-8.57c-.875-.42-.884-1.664-.014-2.096l17.558-8.729a3.898 3.898 0 013.459 0l-.018-2.185-1.786-.876a9.894 9.894 0 00-8.723 0L5.09 10.909c-4.138 2.031-4.13 7.955.014 9.973L21.15 28.7a9.893 9.893 0 008.67 0l1.738-1.023.057-2.054z" fill="#C8D3DC"/><path d="M25.586 51c-1.369 0-2.736-.233-4.033-.699l-9.223-3.309a7.937 7.937 0 01-5.225-8.377l.768-6.898a1.991 1.991 0 013.958.44l-.769 6.898a3.968 3.968 0 002.613 4.189l9.223 3.31a7.996 7.996 0 005.233.05l10.12-3.464a4.105 4.105 0 001.268-.72 1.991 1.991 0 012.593 3.021 8.125 8.125 0 01-2.528 1.451l-10.173 3.483a11.987 11.987 0 01-3.825.625zm5.108-20.512l2.435-1.19a1.991 1.991 0 00-1.749-3.577l-2.432 1.189a7.857 7.857 0 01-6.925 0L5.976 19.091c-1.247-.607-1.992-1.801-1.994-3.194-.002-1.394.74-2.59 1.984-3.201l16.035-7.872a7.852 7.852 0 016.968 0l16.035 7.872c1.194.586 1.95 1.74 2.02 3.086.068 1.316-.527 2.502-1.593 3.171a1.99 1.99 0 102.118 3.372c2.306-1.448 3.596-3.972 3.451-6.751-.147-2.809-1.733-5.221-4.242-6.453L30.724 1.25a11.808 11.808 0 00-10.478 0L4.211 9.122A7.488 7.488 0 000 15.903a7.488 7.488 0 004.232 6.77l16.046 7.816a11.867 11.867 0 005.206 1.21c1.777 0 3.554-.404 5.21-1.21z" fill="#636B7A"/><path d="M37.768 19.601l-9.29-4.582a2.988 2.988 0 10-1.832 3.536l9.36 4.617a3.957 3.957 0 012.221 3.572v9.227a1.99 1.99 0 103.982 0v-9.227a7.914 7.914 0 00-4.44-7.143z" fill="#EE741D"/></svg>