<svg width="54" height="51" fill="none" xmlns="http://www.w3.org/2000/svg"><path d="M8.637 29.94V12.658c0-5.815 4.702-10.528 10.502-10.528h-6.395c-5.817 0-10.532 4.715-10.532 10.532v17.273c0 5.817 4.715 10.533 10.532 10.533h6.395c-5.8 0-10.502-4.714-10.502-10.528z" fill="#C8D3DC"/><path d="M41.287.023H12.639C5.669.023 0 5.693 0 12.663v17.274c0 6.968 5.669 12.637 12.637 12.637h28.65c6.969 0 12.639-5.67 12.639-12.639V12.662c0-6.969-5.67-12.639-12.64-12.639zm8.426 29.912c0 4.646-3.78 8.426-8.426 8.426h-28.65c-4.645 0-8.424-3.779-8.424-8.423V12.662c0-4.646 3.78-8.426 8.426-8.426h28.648c4.646 0 8.426 3.78 8.426 8.426v17.273zM39.18 48.894A2.106 2.106 0 0137.074 51H16.852a2.106 2.106 0 110-4.213h20.222c1.163 0 2.106.943 2.106 2.107zm-1.695-38.059c5.762 5.762 5.762 15.137 0 20.898a2.1 2.1 0 01-1.49.617 2.106 2.106 0 01-1.49-3.596c4.12-4.119 4.12-10.82.001-14.94a2.106 2.106 0 112.98-2.979zm-18.066 2.98c-4.119 4.118-4.119 10.82 0 14.94a2.106 2.106 0 11-2.979 2.979c-5.761-5.762-5.761-15.137 0-20.899a2.106 2.106 0 112.98 2.98z" fill="#636B7A"/><path d="M26.963 27.513a6.327 6.327 0 01-6.32-6.32 6.327 6.327 0 016.32-6.319 6.327 6.327 0 016.32 6.32 6.326 6.326 0 01-6.32 6.319zm0-8.426a2.109 2.109 0 00-2.107 2.106 2.11 2.11 0 002.107 2.107 2.109 2.109 0 002.106-2.107 2.109 2.109 0 00-2.106-2.106z" fill="#EE741D"/></svg>