<svg width="51" height="51" fill="none" xmlns="http://www.w3.org/2000/svg"><path d="M7.77 43.626V26.194c0-1.864.949-3.507 2.39-4.472-.855-.573-1.683-.907-2.79-.907a5.379 5.379 0 00-5.378 5.38v17.43a5.379 5.379 0 005.379 5.38c1.106 0 1.934-.335 2.789-.907a5.373 5.373 0 01-2.39-4.472z" fill="#C8D3DC"/><path d="M7.37 22.808h5.38a1.992 1.992 0 100-3.985H7.37C3.307 18.823 0 22.13 0 26.194v17.432c0 4.064 3.307 7.37 7.37 7.37h5.38a1.992 1.992 0 000-3.984H7.37a3.39 3.39 0 01-3.386-3.386V26.194a3.39 3.39 0 013.387-3.386zm43.629 7.424a5.722 5.722 0 00-2.284-4.573c.5-.85.79-1.84.79-2.897a5.734 5.734 0 00-5.727-5.728l-10.005-.003c1.87-3.924 2.464-5.76 3.017-8.301.843-3.87-.541-6.952-3.703-8.243-1.643-.671-3.366-.648-4.85.066-1.1.53-2.035 1.426-2.704 2.576a7.466 7.466 0 00-.597 1.333c-.443 1.291-1.417 3.981-2.094 5.262-.928 1.755-3.076 4.335-4.995 6.001a1.992 1.992 0 002.61 3.01c2.315-2.009 4.744-4.948 5.907-7.148.997-1.885 2.22-5.48 2.41-6.047.284-.668.705-1.163 1.19-1.396.47-.226 1.013-.215 1.617.031.533.218 1.95.797 1.316 3.707-.55 2.526-1.104 4.26-4.1 10.25a1.992 1.992 0 001.782 2.883l13.199.003c.95 0 1.727.767 1.742 1.714.017.975-.814 1.773-1.789 1.773h-4.836c-1.08 0-2 .84-2.039 1.92a1.992 1.992 0 001.991 2.064h6.379c.975 0 1.805.798 1.789 1.773a1.745 1.745 0 01-1.743 1.713h-6.377c-1.08 0-2 .84-2.039 1.92a1.992 1.992 0 001.991 2.065h6.08c.975 0 1.805.797 1.789 1.772a1.745 1.745 0 01-1.743 1.714h-2.636a3.855 3.855 0 00-.153-.004c-.026 0-.051.003-.077.004h-3.212c-1.08 0-2 .84-2.039 1.92a1.992 1.992 0 001.991 2.064h3.404c.9.04 1.676.883 1.676 1.843 0 .961-.782 1.743-1.743 1.743l-21.465-.004a1.992 1.992 0 000 3.984L42.183 51a5.734 5.734 0 005.727-5.727 5.83 5.83 0 00-.509-2.385 5.734 5.734 0 003.298-5.185 5.698 5.698 0 00-1.247-3.562 5.706 5.706 0 001.546-3.909z" fill="#636B7A"/><path d="M12.75 43.526c-1.1 0-1.992-.892-1.992-1.992V28.286a1.992 1.992 0 113.984 0v13.248c0 1.1-.892 1.992-1.992 1.992z" fill="#EE741D"/></svg>