<svg width="51" height="51" fill="none" xmlns="http://www.w3.org/2000/svg"><path d="M28.58 36.531c-.976.276-2.007.424-3.08.424-6.326 0-11.455-5.128-11.455-11.455 0-6.326 5.129-11.455 11.455-11.455 1.073 0 2.104.148 3.08.424-4.823 1.35-8.36 5.778-8.36 11.031 0 5.253 3.537 9.68 8.36 11.031zM7.968 25.5c0-11.97 8.947-21.852 20.52-23.32a23.725 23.725 0 00-2.989-.188C12.517 1.992 1.992 12.517 1.992 25.5c0 12.983 10.525 23.508 23.508 23.508 1.012 0 2.01-.064 2.988-.188-11.572-1.468-20.52-11.35-20.52-23.32z" fill="#C8D3DC"/><path d="M25.5 51c-6.811 0-13.215-2.653-18.031-7.469C2.652 38.715 0 32.311 0 25.5c0-6.811 2.652-13.215 7.469-18.031C12.285 2.652 18.689 0 25.5 0c8.2 0 15.953 3.958 20.74 10.588a1.992 1.992 0 01-3.23 2.332C38.97 7.325 32.424 3.984 25.5 3.984c-11.864 0-21.516 9.652-21.516 21.516 0 11.864 9.652 21.516 21.516 21.516 6.924 0 13.47-3.34 17.51-8.936a1.992 1.992 0 013.23 2.332C41.453 47.042 33.7 51 25.5 51zm9.599-16.145a1.992 1.992 0 00-2.862-2.772c-1.799 1.857-4.192 2.88-6.737 2.88-5.218 0-9.463-4.245-9.463-9.463 0-5.218 4.245-9.463 9.463-9.463 2.546 0 4.938 1.023 6.737 2.88a1.992 1.992 0 002.862-2.772c-2.556-2.639-5.965-4.092-9.599-4.092-7.415 0-13.447 6.032-13.447 13.447 0 7.415 6.032 13.447 13.447 13.447 3.634 0 7.043-1.453 9.599-4.092z" fill="#636B7A"/><path d="M48.06 27.526a2.84 2.84 0 01-.845-2.026c0-.765.3-1.484.845-2.026l2.352-2.338a1.992 1.992 0 00-2.809-2.826l-2.352 2.338a6.815 6.815 0 00-1.727 2.86H25.5a1.992 1.992 0 100 3.984h18.024a6.815 6.815 0 001.727 2.86l2.352 2.338c.389.387.897.58 1.405.58a1.992 1.992 0 001.405-3.405l-2.353-2.339z" fill="#EE741D"/></svg>