<svg width="51" height="51" fill="none" xmlns="http://www.w3.org/2000/svg"><path d="M40.84 23.651a3.968 3.968 0 01-.996-2.633V17.83c0-1.01.376-1.932.996-2.634v-1.35h-2.988a3.984 3.984 0 00-3.985 3.984v3.188c0 2.2 1.784 3.984 3.985 3.984h2.988v-1.35z" fill="#C8D3DC"/><path d="M41.836 47.016c-1.1 0-1.992-.892-1.992-1.993 0-5.492-4.468-9.96-9.961-9.96H7.969C3.575 35.062 0 31.487 0 27.092v-8.267c.105-2.643 3.88-2.641 3.984 0v8.268a3.989 3.989 0 003.985 3.984h21.914c6.901 0 12.647 5.039 13.753 11.63a5.188 5.188 0 003.38-4.856v-8.866a1.994 1.994 0 00-1.993-1.992h-7.171a5.983 5.983 0 01-5.977-5.977V17.83a5.983 5.983 0 015.977-5.977h2.888c2.643.106 2.642 3.88 0 3.985h-2.888a1.994 1.994 0 00-1.993 1.992v3.188c0 1.098.894 1.992 1.993 1.992h7.171A5.983 5.983 0 0151 28.986v8.866c0 5.053-4.11 9.164-9.164 9.164zM27.891 25.1V11.83a3.964 3.964 0 013.96-3.96h7.196c4.394 0 7.969 3.575 7.969 7.969v2.39c.105 2.644 3.88 2.642 3.984 0v-2.39c0-6.591-5.362-11.953-11.953-11.953H31.85c-4.38 0-7.944 3.563-7.944 7.944V25.1a1.992 1.992 0 003.985 0z" fill="#636B7A"/><path d="M.573 9.25a1.992 1.992 0 012.838-2.796l4.588 4.655c.812.854 2.27.854 3.082-.003L21.495.59a1.992 1.992 0 112.83 2.804L13.914 13.909c-2.3 2.422-6.45 2.422-8.749 0L.574 9.25zM35.86 45.024A5.983 5.983 0 0129.883 51c-7.929-.329-7.926-11.626 0-11.954a5.983 5.983 0 015.977 5.977zm-3.985 0a1.994 1.994 0 00-1.992-1.992c-2.643.11-2.642 3.875 0 3.984a1.994 1.994 0 001.992-1.992zm-11.854-.1c0 1.1-.891 1.993-1.992 1.993h-6.385C9.42 53.25.134 51.818 0 45.023c.121-6.678 9.184-8.234 11.575-2.092h6.454c1.1 0 1.992.892 1.992 1.992zm-12.052.1a1.994 1.994 0 00-1.992-1.992c-2.643.11-2.643 3.875 0 3.984a1.994 1.994 0 001.992-1.992z" fill="#EE741D"/></svg>