<svg width="9" height="12" fill="none" xmlns="http://www.w3.org/2000/svg"><path d="M4.5 2.58c-1.15 0-2.085.999-2.085 2.227 0 1.229.935 2.228 2.085 2.228s2.085-1 2.085-2.228C6.585 3.58 5.65 2.58 4.5 2.58zm0 3.517c-.666 0-1.207-.578-1.207-1.29 0-.71.541-1.29 1.207-1.29s1.207.58 1.207 1.29c0 .712-.541 1.29-1.207 1.29z" fill="#000"/><path d="M4.5 0C2.019 0 0 2.157 0 4.807v.133c0 1.34.72 2.903 2.138 4.644a19.098 19.098 0 002.086 2.178L4.5 12l.276-.238a19.1 19.1 0 002.086-2.178C8.28 7.844 9 6.28 9 4.94v-.133C9 2.157 6.981 0 4.5 0zm3.622 4.94c0 2.266-2.733 5.008-3.622 5.841C3.61 9.948.878 7.206.878 4.941v-.134C.878 2.674 2.503.938 4.5.938c1.997 0 3.622 1.736 3.622 3.87v.132z" fill="#000"/></svg>