<svg width="12" height="12" fill="none" xmlns="http://www.w3.org/2000/svg"><path d="M11.864 5.54L6.98.626A1.405 1.405 0 005.067.62L.136 5.538a.469.469 0 00.663.664l.372-.371v4.047c0 1.034.841 1.875 1.875 1.875h1.687c.26 0 .47-.21.47-.469v-3.82h1.64v3.82c0 .26.21.469.468.469h1.641a1.877 1.877 0 001.875-1.875.469.469 0 10-.937 0c0 .517-.42.938-.938.938H7.781v-3.82a.469.469 0 00-.468-.47h-2.58a.469.469 0 00-.468.47v3.82h-1.22a.939.939 0 01-.937-.938V4.896l3.608-3.6a.468.468 0 01.609 0L9.89 4.885v2.65a.469.469 0 00.937 0V5.83l.37.373a.467.467 0 00.664.002.469.469 0 00.002-.663z" fill="#D95A2B"/></svg>