<svg width="19" height="12" fill="none" xmlns="http://www.w3.org/2000/svg"><path d="M19 1.66C19 .745 18.188 0 17.186 0H1.814C.812 0 0 .744 0 1.66v8.68C0 11.255.812 12 1.814 12h15.372C18.188 12 19 11.256 19 10.34V1.66zm-5.612 3.451l4.614-3.74c.032.09.048.183.046.277v8.662a.762.762 0 01-.014.173l-4.646-5.372zm3.766-4.28a.98.98 0 01.153.006l-7.239 5.857a.971.971 0 01-1.202-.003L1.646.838A.97.97 0 011.8.83h15.354zM.928 10.51a.756.756 0 01-.021-.2V1.647a.756.756 0 01.046-.277l4.566 3.707L.928 10.51zm.872.617a.984.984 0 01-.239-.024l4.632-5.477L8.265 7.31a1.942 1.942 0 002.404.002l2.04-1.65 4.712 5.436a.977.977 0 01-.267.03H1.8z" fill="#000"/></svg>