<svg width="48" height="61" fill="none" xmlns="http://www.w3.org/2000/svg"><path d="M23.144.016C11.191.44 1.261 9.896.114 21.966a24.816 24.816 0 00.321 6.99s.037.264.16.764a24.61 24.61 0 001.616 4.828c2.406 5.778 7.969 15.446 20.452 25.964.765.65 1.887.65 2.665 0C37.81 50.006 43.374 40.338 45.792 34.535a23.58 23.58 0 001.616-4.828c.11-.488.16-.763.16-.763.284-1.5.432-3.039.432-4.615C48 10.597 36.787-.472 23.144.016zm.851 36.42c-6.439 0-11.657-5.29-11.657-11.82 0-6.528 5.218-11.818 11.657-11.818 6.44 0 11.657 5.29 11.657 11.819 0 6.529-5.218 11.82-11.657 11.82z" fill="#FF8E3E"/></svg>