<svg viewBox="0 0 16 14" xmlns="http://www.w3.org/2000/svg" xmlns:xlink="http://www.w3.org/1999/xlink"><style>:root&gt;svg{display:none}:root&gt;svg:target{display:block}</style><svg fill="none" viewBox="0 0 7 14" id="fb" xmlns="http://www.w3.org/2000/svg"><path d="M4.375 4.813v-1.75c0-.484.392-.876.875-.876h.875V0h-1.75A2.625 2.625 0 001.75 2.625v2.188H0V7h1.75v7h2.625V7h1.75L7 4.812H4.375z" fill="#6A6A6A"/></svg><svg fill="none" viewBox="0 0 7 14" id="fb-orange" xmlns="http://www.w3.org/2000/svg"><path d="M4.375 4.813v-1.75c0-.484.392-.876.875-.876h.875V0h-1.75A2.625 2.625 0 001.75 2.625v2.188H0V7h1.75v7h2.625V7h1.75L7 4.812H4.375z" fill="#EE741D"/></svg><svg fill="none" viewBox="0 0 14 14" id="inst" xmlns="http://www.w3.org/2000/svg"><path d="M13.964 4.116c-.032-.744-.153-1.255-.325-1.698a3.416 3.416 0 00-.81-1.242A3.445 3.445 0 0011.59.369c-.446-.172-.955-.292-1.699-.325C9.141.008 8.904 0 7.003 0c-1.901 0-2.14.008-2.886.041-.744.033-1.256.153-1.699.325-.47.178-.892.452-1.242.81-.355.35-.632.774-.807 1.239-.172.446-.292.954-.325 1.698C.008 4.863 0 5.101 0 7.001c0 1.901.008 2.14.041 2.886.033.744.153 1.255.326 1.698.177.47.454.892.81 1.242.35.355.773.632 1.238.807.446.172.955.292 1.7.325.746.033.984.041 2.885.041 1.901 0 2.14-.008 2.886-.041.744-.033 1.256-.153 1.699-.325a3.582 3.582 0 002.048-2.049c.173-.446.293-.954.326-1.698C13.992 9.14 14 8.902 14 7c0-1.9-.003-2.138-.036-2.885zm-1.26 5.716c-.03.684-.146 1.053-.241 1.3a2.322 2.322 0 01-1.33 1.328c-.246.096-.618.21-1.3.24-.738.034-.96.042-2.828.042-1.868 0-2.092-.008-2.828-.041-.684-.03-1.053-.145-1.3-.24a2.153 2.153 0 01-.804-.523c-.232-.227-.41-.5-.522-.804-.096-.246-.21-.618-.24-1.3-.034-.738-.042-.96-.042-2.827 0-1.868.008-2.092.041-2.828.03-.684.145-1.053.241-1.3.112-.303.29-.579.525-.803.227-.233.5-.41.804-.523.247-.095.619-.21 1.3-.24.738-.033.96-.041 2.828-.041 1.871 0 2.093.008 2.829.04.684.03 1.053.146 1.299.241.304.113.58.29.804.523.233.227.41.5.523.804.095.246.21.618.24 1.299.033.738.042.96.042 2.828 0 1.868-.009 2.087-.042 2.825z" fill="#6A6A6A"/><path d="M7.003 3.405A3.598 3.598 0 1010.6 7.001a3.598 3.598 0 00-3.597-3.596zm0 5.93a2.334 2.334 0 110-4.668 2.334 2.334 0 010 4.667zm4.579-6.072a.84.84 0 11-1.68 0 .84.84 0 011.68 0z" fill="#6A6A6A"/></svg><svg fill="none" viewBox="0 0 14 14" id="inst-orange" xmlns="http://www.w3.org/2000/svg"><path d="M13.964 4.116c-.032-.744-.153-1.255-.325-1.698a3.416 3.416 0 00-.81-1.242A3.445 3.445 0 0011.59.369c-.446-.172-.955-.292-1.699-.325C9.141.008 8.904 0 7.003 0c-1.901 0-2.14.008-2.886.041-.744.033-1.256.153-1.699.325-.47.178-.892.452-1.242.81-.355.35-.632.774-.807 1.239-.172.446-.292.954-.325 1.698C.008 4.863 0 5.101 0 7.001c0 1.901.008 2.14.041 2.886.033.744.153 1.255.326 1.698.177.47.454.892.81 1.242.35.355.773.632 1.238.807.446.172.955.292 1.7.325.746.033.984.041 2.885.041 1.901 0 2.14-.008 2.886-.041.744-.033 1.256-.153 1.699-.325a3.582 3.582 0 002.048-2.049c.173-.446.293-.954.326-1.698C13.992 9.14 14 8.902 14 7c0-1.9-.003-2.138-.036-2.885zm-1.26 5.716c-.03.684-.146 1.053-.241 1.3a2.322 2.322 0 01-1.33 1.328c-.246.096-.618.21-1.3.24-.738.034-.96.042-2.828.042-1.868 0-2.092-.008-2.828-.041-.684-.03-1.053-.145-1.3-.24a2.153 2.153 0 01-.804-.523c-.232-.227-.41-.5-.522-.804-.096-.246-.21-.618-.24-1.3-.034-.738-.042-.96-.042-2.827 0-1.868.008-2.092.041-2.828.03-.684.145-1.053.241-1.3.112-.303.29-.579.525-.803.227-.233.5-.41.804-.523.247-.095.619-.21 1.3-.24.738-.033.96-.041 2.828-.041 1.871 0 2.093.008 2.829.04.684.03 1.053.146 1.299.241.304.113.58.29.804.523.233.227.41.5.523.804.095.246.21.618.24 1.299.033.738.042.96.042 2.828 0 1.868-.009 2.087-.042 2.825z" fill="#EE741D"/><path d="M7.003 3.405A3.598 3.598 0 1010.6 7.001a3.598 3.598 0 00-3.597-3.596zm0 5.93a2.334 2.334 0 110-4.668 2.334 2.334 0 010 4.667zm4.579-6.072a.84.84 0 11-1.68 0 .84.84 0 011.68 0z" fill="#EE741D"/></svg><svg fill="none" viewBox="0 0 16 12" id="tube" xmlns="http://www.w3.org/2000/svg"><path d="M15.67 10.122c-.184.735-.725 1.313-1.41 1.511C13.008 12 8 12 8 12s-5.008 0-6.26-.353c-.673-.198-1.226-.79-1.41-1.525C0 8.782 0 6 0 6s0-2.795.33-4.122c.184-.734.724-1.313 1.41-1.51C3.005 0 8 0 8 0s5.008 0 6.26.353c.686.198 1.226.776 1.41 1.51.33 1.342.33 4.123.33 4.123s.013 2.795-.33 4.136zM6.405 3.431v5.138L10.57 6 6.405 3.43z" fill="#6A6A6A"/></svg><svg fill="none" viewBox="0 0 16 12" id="tube-orange" xmlns="http://www.w3.org/2000/svg"><path d="M15.67 10.122c-.184.735-.725 1.313-1.41 1.511C13.008 12 8 12 8 12s-5.008 0-6.26-.353c-.673-.198-1.226-.79-1.41-1.525C0 8.782 0 6 0 6s0-2.795.33-4.122c.184-.734.724-1.313 1.41-1.51C3.005 0 8 0 8 0s5.008 0 6.26.353c.686.198 1.226.776 1.41 1.51.33 1.342.33 4.123.33 4.123s.013 2.795-.33 4.136zM6.405 3.431v5.138L10.57 6 6.405 3.43z" fill="#EE741D"/></svg><svg fill="none" viewBox="0 0 15 8" id="vk" xmlns="http://www.w3.org/2000/svg"><path d="M14.866 7.136c-.04-.064-.29-.57-1.49-1.611-1.256-1.09-1.087-.913.426-2.799.922-1.148 1.29-1.849 1.175-2.148-.11-.286-.788-.21-.788-.21L11.935.38s-.166-.021-.291.048a.6.6 0 00-.199.226s-.357.888-.833 1.644c-1.005 1.594-1.407 1.678-1.57 1.58-.382-.231-.287-.928-.287-1.422 0-1.545.25-2.19-.488-2.356C8.02.045 7.84.008 7.214.002 6.409-.006 5.728.004 5.342.18c-.256.117-.454.38-.333.394.149.018.486.085.665.313.232.293.224.954.224.954s.133 1.819-.31 2.045c-.306.155-.723-.161-1.618-1.608a13.11 13.11 0 01-.806-1.56S3.099.566 2.98.485c-.145-.1-.347-.13-.347-.13L.489.365s-.322.01-.44.14C-.056.622.041.862.041.862s1.678 3.67 3.577 5.52C5.361 8.078 7.34 7.966 7.34 7.966h.896s.27-.028.409-.167c.127-.128.122-.368.122-.368s-.017-1.125.541-1.29c.55-.163 1.258 1.087 2.007 1.568.566.363.996.284.996.284l2.004-.027s1.048-.06.551-.83z" fill="#6A6A6A"/></svg><svg fill="none" viewBox="0 0 15 8" id="vk-orange" xmlns="http://www.w3.org/2000/svg"><path d="M14.866 7.136c-.04-.064-.29-.57-1.49-1.611-1.256-1.09-1.087-.913.426-2.799.922-1.148 1.29-1.849 1.175-2.148-.11-.286-.788-.21-.788-.21L11.935.38s-.166-.021-.291.048a.6.6 0 00-.199.226s-.357.888-.833 1.644c-1.005 1.594-1.407 1.678-1.57 1.58-.382-.231-.287-.928-.287-1.422 0-1.545.25-2.19-.488-2.356C8.02.045 7.84.008 7.214.002 6.409-.006 5.728.004 5.342.18c-.256.117-.454.38-.333.394.149.018.486.085.665.313.232.293.224.954.224.954s.133 1.819-.31 2.045c-.306.155-.723-.161-1.618-1.608a13.11 13.11 0 01-.806-1.56S3.099.566 2.98.485c-.145-.1-.347-.13-.347-.13L.489.365s-.322.01-.44.14C-.056.622.041.862.041.862s1.678 3.67 3.577 5.52C5.361 8.078 7.34 7.966 7.34 7.966h.896s.27-.028.409-.167c.127-.128.122-.368.122-.368s-.017-1.125.541-1.29c.55-.163 1.258 1.087 2.007 1.568.566.363.996.284.996.284l2.004-.027s1.048-.06.551-.83z" fill="#EE741D"/></svg></svg>