<svg width="15" height="8" fill="none" xmlns="http://www.w3.org/2000/svg"><path d="M14.866 7.136c-.04-.064-.29-.57-1.49-1.611-1.256-1.09-1.087-.913.426-2.799.922-1.148 1.29-1.849 1.175-2.148-.11-.286-.788-.21-.788-.21L11.935.38s-.166-.021-.291.048a.6.6 0 00-.199.226s-.357.888-.833 1.644c-1.005 1.594-1.407 1.678-1.57 1.58-.382-.231-.287-.928-.287-1.422 0-1.545.25-2.19-.488-2.356C8.02.045 7.84.008 7.214.002 6.409-.006 5.728.004 5.342.18c-.256.117-.454.38-.333.394.149.018.486.085.665.313.232.293.224.954.224.954s.133 1.819-.31 2.045c-.306.155-.723-.161-1.618-1.608a13.11 13.11 0 01-.806-1.56S3.099.566 2.98.485c-.145-.1-.347-.13-.347-.13L.489.365s-.322.01-.44.14C-.056.622.041.862.041.862s1.678 3.67 3.577 5.52C5.361 8.078 7.34 7.966 7.34 7.966h.896s.27-.028.409-.167c.127-.128.122-.368.122-.368s-.017-1.125.541-1.29c.55-.163 1.258 1.087 2.007 1.568.566.363.996.284.996.284l2.004-.027s1.048-.06.551-.83z" fill="#6A6A6A"/></svg>