<svg width="81" height="106" viewBox="0 0 81 106" fill="none" xmlns="http://www.w3.org/2000/svg">
<path d="M40.5 24.5108C18.0393 24.5108 0 42.837 0 65.2554C0 87.8518 18.2162 106 40.5 106C62.9608 106 81 87.6738 81 65.2554C81 42.837 62.7839 24.5108 40.5 24.5108ZM67.3821 89.2752L62.0764 83.9374C65.7904 79.4893 68.2664 73.7958 68.797 67.7464H76.2249C75.8712 75.9309 72.5109 83.4037 67.3821 89.2752ZM4.4214 67.7464H11.8494C12.3799 73.9737 14.8559 79.4893 18.5699 83.9374L13.2642 89.2752C8.31223 83.4037 4.95197 75.9309 4.4214 67.7464ZM13.441 41.5915L18.7467 46.9292C15.0327 51.3773 12.5567 57.0709 12.0262 63.1203H4.59821C4.95192 54.9358 8.31219 47.2851 13.441 41.5915ZM40.5 76.9984C34.1332 76.9984 29.0044 71.8386 29.0044 65.4333C29.0044 59.028 34.1332 53.8683 40.5 53.8683C46.8669 53.8683 51.9957 59.028 51.9957 65.4333C51.8188 71.8386 46.69 76.9984 40.5 76.9984ZM50.0502 52.4449C47.9279 50.8436 45.452 49.776 42.7992 49.4202V41.4136C47.7511 41.9473 52.1725 43.9045 55.7096 46.7513L50.0502 52.4449ZM38.2008 49.4202C35.548 49.776 32.8952 50.8436 30.9498 52.4449L25.2904 46.7513C28.8275 43.7266 33.2489 41.7694 38.2008 41.4136V49.4202ZM27.5895 55.8254C25.9978 57.9605 24.9367 60.4515 24.583 63.1203H16.6245C17.1551 58.1385 19.1005 53.6904 21.9302 50.1319L27.5895 55.8254ZM24.4061 67.7464C24.7598 70.4152 25.821 73.0841 27.4127 75.0412L21.7533 80.7348C18.7467 77.1763 16.8013 72.7282 16.4476 67.7464H24.4061ZM30.773 78.4218C32.8952 80.0231 35.3712 81.0906 38.024 81.4465V89.453C33.0721 88.9193 28.6507 86.9621 25.1136 84.1153L30.773 78.4218ZM42.6222 81.4465C45.2751 81.0906 47.928 80.0231 49.8734 78.4218L55.5328 84.1153C51.9957 87.14 47.5742 89.0972 42.6222 89.453V81.4465ZM53.2336 75.0412C54.8253 72.9062 55.8864 70.4152 56.2402 67.7464H64.1987C63.6681 72.7282 61.7227 77.1763 58.893 80.7348L53.2336 75.0412ZM56.4171 63.1203C56.0634 60.4515 55.0022 57.7826 53.4105 55.8254L59.0699 50.1319C62.0765 53.6904 64.0219 58.1385 64.3756 63.1203H56.4171ZM58.893 43.5487C54.4716 39.8123 48.8123 37.3214 42.7992 36.7876V29.3148C50.9345 29.8485 58.5393 33.0512 64.1987 38.211L58.893 43.5487ZM38.2008 36.7876C32.0109 37.3214 26.5284 39.8123 22.107 43.5487L16.8013 38.211C22.6376 33.0512 30.0655 29.8485 38.2008 29.3148V36.7876ZM21.9302 87.318C26.3516 91.0544 32.0109 93.5453 38.024 94.0791V101.552C29.8886 101.018 22.2839 97.8155 16.6245 92.6557L21.9302 87.318ZM42.6222 94.0791C48.8122 93.5453 54.2948 91.0544 58.7162 87.318L64.0219 92.6557C58.1856 97.8155 50.7576 101.018 42.6222 101.552V94.0791ZM68.797 63.1203C68.2664 56.893 65.7904 51.3773 62.0764 46.9292L67.3821 41.5915C72.5109 47.463 75.6943 54.9358 76.2249 63.1203H68.797Z" fill="#EE741D"/>
<path d="M9.13637 19.4044C10.1515 19.4044 11.1667 18.4446 11.1667 17.3249V8.20718C11.1667 7.08746 10.4069 6.1277 9.13637 6.1277C7.86585 6.1277 7.10607 7.24742 7.10607 8.36714V17.3249C7.10607 18.6046 8.31644 19.4044 9.13637 19.4044Z" fill="#EE741D"/>
<path d="M25.3788 19.4044C26.4721 19.4044 27.4091 18.4794 27.4091 17.4004V5.06788C27.4091 3.98879 26.4721 3.06385 25.3788 3.06385C24.2856 3.06385 23.3485 3.98879 23.3485 5.06788V17.2462C23.3485 18.4794 24.1294 19.4044 25.3788 19.4044Z" fill="#EE741D"/>
<path d="M40.6061 19.4044C41.6993 19.4044 42.6364 18.4804 42.6364 17.4023V2.00204C42.6364 0.924019 41.6993 0 40.6061 0C39.5129 0 38.5758 0.924019 38.5758 2.00204V17.4023C38.5758 18.4804 39.5129 19.4044 40.6061 19.4044Z" fill="#EE741D"/>
<path d="M55.8334 19.4044C56.9266 19.4044 57.8637 18.4794 57.8637 17.4004V5.06788C57.8637 3.98879 56.9266 3.06385 55.8334 3.06385C54.7402 3.06385 53.8031 3.98879 53.8031 5.06788V17.2462C53.8031 18.4794 54.584 19.4044 55.8334 19.4044Z" fill="#EE741D"/>
<path d="M71.0607 19.4044C72.1539 19.4044 73.091 18.4446 73.091 17.3249V8.20718C73.091 7.08746 72.1539 6.1277 71.0607 6.1277C69.9674 6.1277 69.0304 7.08746 69.0304 8.20718V17.1649C69.0304 18.4446 69.9674 19.4044 71.0607 19.4044Z" fill="#EE741D"/>
</svg>
