<svg width="72" height="89" viewBox="0 0 72 89" fill="none" xmlns="http://www.w3.org/2000/svg">
<path d="M69.6159 29.7717H66.914C65.1656 13.0743 50.861 0 33.5364 0C14.9404 0 0 14.9646 0 33.2372V41.5858C0 42.6885 0.953528 43.6336 2.06611 43.6336H18.9138V63.954C18.9138 64.584 19.2318 65.2141 19.8676 65.6867L54.5165 88.6849C54.8344 88.8425 55.3113 89 55.6292 89C62.1458 89 67.3907 83.8017 67.3907 77.3433V53.2425H69.9339C71.0465 53.2425 72 52.2974 72 51.1947V31.6619C71.6821 30.5593 70.7285 29.7717 69.6159 29.7717ZM4.13242 33.2372C4.13242 17.1699 17.3245 4.09558 33.5364 4.09558C39.7351 4.09558 45.457 5.98583 50.2252 9.29379C49.1126 10.0814 47.841 11.0266 46.7284 11.9717C42.9138 9.60885 38.3047 8.3487 33.5364 8.3487C19.5497 8.3487 8.26484 19.6902 8.26484 33.3946V33.5522C8.26484 34.6549 9.21856 35.6 10.3311 35.6H18.9138V39.6955H4.13242V33.2372ZM20.0265 31.3469H12.3973C13.3509 20.6354 22.4106 12.1292 33.5364 12.1292C37.0331 12.1292 40.2119 12.9168 43.0729 14.3345C36.3974 19.3752 28.7682 24.8885 20.0265 31.3469ZM62.9405 77.3433C62.9405 81.2814 59.9206 84.5894 55.947 84.7469L22.8873 62.6938V34.0248C34.9668 25.2035 52.9272 11.9717 53.5629 11.4991C58.4901 16.0673 61.9869 22.3681 62.7816 29.4566H60.3974C59.2849 29.4566 58.3311 30.4018 58.3311 31.5045V51.0371C58.3311 52.1398 59.2849 53.0849 60.3974 53.0849H62.9405V77.3433ZM67.5498 49.3044H62.4636V33.8673H67.5498V49.3044Z" fill="#EE741D"/>
<path d="M33.5364 37.9628C31.6291 37.9628 30.0395 39.538 30.0395 41.4283C30.0395 43.3185 31.6291 44.8938 33.5364 44.8938C35.4436 44.8938 37.033 43.3185 37.033 41.4283C37.033 39.538 35.4436 37.9628 33.5364 37.9628Z" fill="#EE741D"/>
</svg>
