<svg width="74" height="90" viewBox="0 0 74 90" fill="none" xmlns="http://www.w3.org/2000/svg">
<path d="M74 25.92C74 18.864 68.23 13.104 61.1618 13.104H57.844L50.7758 1.00802C50.3431 0.432018 49.7661 0 49.0448 0H24.9552C24.2339 0 23.5127 0.432018 23.2242 1.00802L16.1559 13.104H12.8382C5.76998 13.104 0 18.864 0 25.92V87.984C0 89.136 0.865497 90 2.01949 90H15.2904C16.0117 90 16.7329 89.568 17.0214 88.992L21.9259 80.784H51.9298L56.8343 88.992C57.2671 89.568 57.844 90 58.5653 90H71.8363C72.9902 90 74 89.152 74 88V26V25.92ZM26.1092 4.03198H47.6023L52.9396 12.96H20.9162L26.1092 4.03198ZM4.03899 25.92C4.03899 21.168 7.93372 17.1359 12.8382 17.1359H61.1618C65.922 17.1359 69.961 21.024 69.961 25.92V76.608H4.03899V25.92ZM13.9922 85.824H3.89474V80.784H16.8772L13.9922 85.824ZM69.8168 85.824H59.7193L56.8343 80.784H69.8168V85.824Z" fill="#EE741D"/>
<path d="M60.1519 48.672H46.0155C44.8615 48.672 43.996 49.5361 43.996 50.6881C43.996 51.8401 44.8615 52.704 46.0155 52.704H60.1519C61.3059 52.704 62.1714 51.8401 62.1714 50.6881C62.1714 49.5361 61.3059 48.672 60.1519 48.672Z" fill="#EE741D"/>
<path d="M60.1519 56.88H46.0155C44.8615 56.88 43.996 57.744 43.996 58.896C43.996 60.048 44.8615 60.912 46.0155 60.912H60.1519C61.3059 60.912 62.1714 60.048 62.1714 58.896C62.1714 57.888 61.3059 56.88 60.1519 56.88Z" fill="#EE741D"/>
<path d="M60.1519 65.232H46.0155C44.8615 65.232 43.996 66.0961 43.996 67.2481C43.996 68.4001 44.8615 69.264 46.0155 69.264H60.1519C61.3059 69.264 62.1714 68.4001 62.1714 67.2481C62.1714 66.2401 61.3059 65.232 60.1519 65.232Z" fill="#EE741D"/>
<path d="M53.0837 24.9121C48.035 24.9121 43.8518 29.0881 43.8518 34.1281C43.8518 39.1681 48.035 43.344 53.0837 43.344C58.1325 43.344 62.3157 39.1681 62.3157 34.1281C62.1714 29.0881 58.1325 24.9121 53.0837 24.9121ZM53.0837 39.1681C50.343 39.1681 48.035 36.8641 48.035 34.1281C48.035 31.3921 50.343 29.0881 53.0837 29.0881C55.8245 29.0881 58.1325 31.3921 58.1325 34.1281C57.9882 36.8641 55.8245 39.1681 53.0837 39.1681Z" fill="#EE741D"/>
<path d="M33.3218 26.4959H13.7039C12.5499 26.4959 11.6844 27.3599 11.6844 28.5119V39.5999C11.6844 40.7519 12.5499 41.6159 13.7039 41.6159H33.3218C34.4758 41.6159 35.3413 40.7519 35.3413 39.5999V28.5119C35.4855 27.3599 34.4758 26.4959 33.3218 26.4959ZM31.3023 37.5839H15.8676V30.6719H31.3023V37.5839Z" fill="#EE741D"/>
<path d="M16.4446 47.952C14.1366 47.952 12.2614 49.8241 12.2614 52.1281C12.2614 54.4321 14.1366 56.304 16.4446 56.304C18.7526 56.304 20.6278 54.4321 20.6278 52.1281C20.6278 49.8241 18.7526 47.952 16.4446 47.952Z" fill="#EE741D"/>
<path d="M30.5806 56.304C32.8909 56.304 34.7638 54.4344 34.7638 52.1281C34.7638 49.8217 32.8909 47.952 30.5806 47.952C28.2702 47.952 26.3973 49.8217 26.3973 52.1281C26.3973 54.4344 28.2702 56.304 30.5806 56.304Z" fill="#EE741D"/>
</svg>
