<svg width="88" height="81" viewBox="0 0 88 81" fill="none" xmlns="http://www.w3.org/2000/svg">
<path d="M62.6172 25.9146C61.5015 25.9146 60.3858 26.0502 59.2701 26.1859V12.4824C59.2701 5.56283 53.5523 0 46.4399 0H12.8303C5.71784 0 0 5.56283 0 12.4824V49.9296C0 51.015 0.836789 51.8292 1.95246 51.8292H11.2962C11.8541 51.8292 12.4119 51.5578 12.8303 51.1508L15.8984 47.6232H37.5145C37.3751 48.7086 37.2356 49.6583 37.2356 50.7437C37.2356 59.4272 41.9772 67.1608 48.9502 71.6382H37.7935V70.4171C37.7935 69.4674 37.0961 68.7889 36.2594 68.5176L26.3578 66.211C26.2183 66.211 26.0789 66.211 25.9394 66.211H1.95246C0.836789 66.211 0 67.0251 0 68.1106V79.1005C0 80.1859 0.836789 81 1.95246 81H25.9394C26.0789 81 26.2183 81 26.3578 81L36.2594 78.6935C37.0961 78.4221 37.7935 77.7438 37.7935 76.794V75.5729H62.6172C76.7025 75.5729 87.9987 64.4472 87.9987 50.8794C88.1382 37.0402 76.7025 25.9146 62.6172 25.9146ZM33.7491 75.1658L25.6605 77.0653H3.90484V70.0101H25.6605L33.7491 71.9095V75.1658ZM12.8303 3.79898H46.4399C51.3209 3.79898 55.3653 7.598 55.3653 12.4824V13.4322H4.04435V12.4824C3.90489 7.73368 7.94919 3.79898 12.8303 3.79898ZM14.7827 43.5528C14.2249 43.5528 13.667 43.8242 13.2486 44.2312L10.1805 47.7588H3.90484V17.2312H55.2258V47.7588H48.9502L45.8821 44.2312C45.4637 43.8242 44.9058 43.5528 44.348 43.5528H14.7827ZM62.6172 71.5025C50.7631 71.5025 41.1404 62.1407 41.1404 50.608C41.1404 49.5226 41.2799 48.4372 41.4194 47.4874H43.3718L46.4399 51.0151C46.8582 51.4221 47.4161 51.6935 47.974 51.6935H57.3177C58.4334 51.6935 59.2701 50.8794 59.2701 49.794V30.1206C60.3858 29.9849 61.5015 29.8492 62.6172 29.8492C74.4712 29.8492 84.0938 39.2111 84.0938 50.7437C84.0938 62.1407 74.4712 71.5025 62.6172 71.5025Z" fill="#EE741D"/>
<path d="M27.892 24.5579H16.038C14.9223 24.5579 14.0856 25.3719 14.0856 26.4573C14.0856 27.5427 14.9223 28.3568 16.038 28.3568H27.892C29.0077 28.3568 29.8444 27.5427 29.8444 26.4573C29.8444 25.3719 29.0077 24.5579 27.892 24.5579Z" fill="#EE741D"/>
<path d="M27.892 32.4271H16.038C14.9223 32.4271 14.0856 33.2412 14.0856 34.3266C14.0856 35.412 14.9223 36.2261 16.038 36.2261H27.892C29.0077 36.2261 29.8444 35.412 29.8444 34.3266C29.8444 33.3768 29.0077 32.4271 27.892 32.4271Z" fill="#EE741D"/>
<path d="M41.1405 26.5931C38.9092 26.5931 37.0963 28.3568 37.0963 30.5277C37.0963 32.6985 38.9092 34.4624 41.1405 34.4624C43.3719 34.4624 45.1849 32.6985 45.1849 30.5277C45.1849 28.3568 43.3719 26.5931 41.1405 26.5931Z" fill="#EE741D"/>
</svg>
