<svg width="92" height="101" viewBox="0 0 92 101" fill="none" xmlns="http://www.w3.org/2000/svg">
<path d="M49.3378 72.3931C51.662 72.3931 53.546 70.498 53.546 68.1604C53.546 65.8227 51.662 63.9278 49.3378 63.9278C47.0137 63.9278 45.1296 65.8227 45.1296 68.1604C45.1296 70.498 47.0137 72.3931 49.3378 72.3931Z" fill="#EE741D"/>
<path d="M19.8798 70.4957C14.3656 70.4957 9.86713 75.0202 9.86713 80.5664C9.86713 86.1127 14.3656 90.6373 19.8798 90.6373C25.394 90.6373 29.8924 86.1127 29.8924 80.5664C29.8924 75.1661 25.394 70.4957 19.8798 70.4957ZM19.8798 86.5506C16.6873 86.5506 13.9302 83.9234 13.9302 80.5664C13.9302 77.3554 16.5422 74.5824 19.8798 74.5824C23.0722 74.5824 25.8293 77.2095 25.8293 80.5664C25.6842 83.9234 23.0722 86.5506 19.8798 86.5506Z" fill="#EE741D"/>
<path d="M89.5331 60.2789H87.6467V55.7543C87.6467 54.5867 86.776 53.711 85.6152 53.711H78.9401L70.5237 45.2456L79.3754 36.3425C79.8107 35.9046 79.9559 35.4668 79.9559 34.8829V27.5853C79.9559 26.4176 79.0852 25.5419 77.9243 25.5419H55.7224L32.6498 2.33527C31.1987 0.875732 29.1672 0 27.1356 0C24.959 0 23.0725 0.875732 21.6214 2.33527L12.6246 11.3844C11.1735 12.844 10.3028 14.8873 10.3028 16.9306C10.3028 18.974 11.1735 21.0173 12.6246 22.4769L17.9937 27.8772V32.5477H10.0126L3.62776 26.1257C2.7571 25.25 1.4511 25.25 0.725552 26.1257C-0.14511 27.0014 -0.14511 28.315 0.725552 29.0448L7.69083 36.0506C8.12617 36.4884 8.5615 36.6344 9.14194 36.6344H17.9937V60.5708C7.83595 61.5925 0 70.2038 0 80.7125C0 91.805 8.99684 101 20.1703 101C28.0063 101 34.8265 96.4755 38.164 89.9075H59.205C59.9306 96.1836 65.1546 101 71.5394 101C78.3596 101 84.0189 95.3078 84.0189 88.448C84.0189 82.7558 80.246 77.9393 75.1672 76.4798V71.2255H86.0505C87.2113 71.2255 88.082 70.3497 88.082 69.1821V64.6576H89.9685C91.1293 64.6576 92 63.7818 92 62.6142C91.7098 61.1546 90.694 60.2789 89.5331 60.2789ZM75.7476 33.8613L58.1893 51.5217L36.4227 29.6286H75.7476V33.8613ZM14.2208 16.7846C14.2208 15.763 14.6562 14.8873 15.2366 14.1575L24.2334 5.10838C24.959 4.37861 25.8297 4.08669 26.8454 4.08669C27.8612 4.08669 28.7318 4.52457 29.4574 5.10838L49.6278 25.396H21.041L15.0915 19.4119C14.6561 18.8281 14.2208 17.8063 14.2208 16.7846ZM19.8801 96.7674C11.0284 96.7674 3.91798 89.6157 3.91798 80.7125C3.91798 71.8093 11.0284 64.6576 19.8801 64.6576C28.7319 64.6576 35.8423 71.8093 35.8423 80.7125C35.8423 89.4697 28.5868 96.7674 19.8801 96.7674ZM58.9148 85.6749H39.3249C39.7602 84.0694 39.9054 82.4639 39.9054 80.7125C39.9054 70.2038 31.9243 61.5925 21.9117 60.5708V53.4191H35.9874C37.1483 53.4191 38.0189 52.5433 38.0189 51.3757C38.0189 50.2081 37.1483 49.3324 35.9874 49.3324H21.9117V45.0997H26.8454C28.0063 45.0997 28.877 44.224 28.877 43.0563C28.877 41.8887 28.0063 41.013 26.8454 41.013H21.9117V29.9205H30.4732L70.5237 70.0578V76.0419C64.8644 76.1879 60.2208 80.2746 58.9148 85.6749ZM79.3754 88.448C79.3754 92.9726 75.6025 96.7674 71.1041 96.7674C66.6057 96.7674 62.8328 92.9726 62.8328 88.448C62.8328 83.9234 66.6057 80.1286 71.1041 80.1286C75.7476 80.1286 79.3754 83.7775 79.3754 88.448ZM83.5836 66.8469H73.571L61.2366 54.4408L67.6215 48.0188L76.6183 57.0679C77.0536 57.5058 77.489 57.6517 78.0694 57.6517H83.5836V66.8469Z" fill="#EE741D"/>
</svg>
