<svg width="91" height="81" viewBox="0 0 91 81" fill="none" xmlns="http://www.w3.org/2000/svg">
<path d="M80.8701 60H79.1586V32.7143C79.1586 32.1429 78.8734 31.7143 78.5881 31.2857L73.5961 26.2857C73.1682 25.8572 72.7403 25.7143 72.1698 25.7143H56.0529C55.4823 25.7143 55.0545 26 54.6266 26.2857L49.6346 31.2857C49.2067 31.7143 49.0641 32.1429 49.0641 32.7143V51.7143H44.0721L41.5048 40.4285C41.3622 39.4285 40.5064 38.8572 39.508 38.8572H31.6634L23.391 1.57148C23.2484 0.571481 22.3926 0 21.3942 0H2.13942C0.998397 0 0.142628 0.857177 0.142628 2.00003C0.142628 3.14289 0.998397 3.99998 2.13942 3.99998H13.5497V48C5.84775 49.4286 0 56.2857 0 64.2857C0 73.4286 7.41666 81 16.6875 81C22.8205 81 28.2404 77.5714 31.0929 72.5714H36.7981V79C36.7981 80.1428 37.6538 81 38.7948 81H88.9999C90.141 81 90.9967 80.1428 90.9967 79V70.4285C91.1394 64.7143 86.5753 60 80.8701 60ZM70.173 60V47.8571C70.173 46.7143 69.3173 45.8572 68.1762 45.8572C67.0352 45.8572 66.1795 46.7143 66.1795 47.8571V60H61.9006V47.8571C61.9006 46.7143 61.0448 45.8572 59.9038 45.8572C58.7628 45.8572 57.907 46.7143 57.907 47.8571V60H53.2003V40.5715H75.165V60H70.173ZM53.0577 33.5714L56.9086 29.7143H71.1714L75.0224 33.5714V36.4286H53.0577V33.5714ZM27.9551 41.2857C28.0977 42.2857 28.9535 42.8571 29.9519 42.8571H37.7964L39.7932 51.7143H27.5272C24.8173 49.4286 21.3942 48 17.6859 47.7143V3.99998H19.6827L27.9551 41.2857ZM16.6875 76.8571C9.84134 76.8571 4.13622 71.2857 4.13622 64.2857C4.13622 57.4286 9.69871 51.7143 16.6875 51.7143C23.5336 51.7143 29.2388 57.2857 29.2388 64.2857C29.2388 71.2857 23.6763 76.8571 16.6875 76.8571ZM37.0833 68.4286H32.9471C33.2324 67.1429 33.5176 65.7143 33.5176 64.2857C33.5176 61.1428 32.6618 58.2858 31.2356 55.8572H49.2067V60H47.4952C42.0753 60 37.9391 63.7143 37.0833 68.4286ZM40.9343 76.8571V70.2857C40.9343 66.8571 43.5769 64 47 64H81C84 64 85.8621 66 86.5753 68.4286H67.4631C66.3221 68.4286 65.4663 69.2857 65.4663 70.4285C65.4663 71.5714 66.3221 72.4286 67.4631 72.4286H87.0032V76.7143H40.9343V76.8571Z" fill="#EE741D"/>
<path d="M16.6873 56C12.1232 56 8.27222 59.7143 8.27222 64.4286C8.27222 69.1429 11.9805 72.8571 16.6873 72.8571C21.2514 72.8571 25.1023 69.1429 25.1023 64.4286C25.1023 59.7143 21.394 56 16.6873 56ZM16.6873 68.5714C14.4052 68.5714 12.4084 66.7142 12.4084 64.2857C12.4084 61.9999 14.2626 60 16.6873 60C18.9693 60 20.9661 61.8571 20.9661 64.2857C20.9661 66.7142 19.112 68.5714 16.6873 68.5714Z" fill="#EE741D"/>
</svg>
