<svg width="95" height="77" viewBox="0 0 95 77" fill="none" xmlns="http://www.w3.org/2000/svg">
<path d="M93.067 4.84712H91.1338V4.29313C91.1338 3.32371 90.4434 2.63131 89.615 2.35433L80.3634 0C80.2253 0 79.811 0 79.811 0H63.6556C61.8605 0 60.2035 0.69248 58.8227 1.93888L49.157 11.6331C47.9143 10.5252 46.2572 9.8327 44.6002 9.8327C42.8052 9.8327 41.1482 10.5252 39.7674 11.7716L1.93309 49.7177C0.690357 50.9641 0 52.7644 0 54.5648C0 56.3652 0.690357 58.027 1.93309 59.4119L18.9171 76.4461C19.3313 76.8616 19.7456 77 20.2979 77C20.8502 77 21.2645 76.7231 21.6787 76.4461L25.2688 72.8453C25.6831 72.4299 25.9593 71.7374 25.8212 71.045L24.0262 62.7356L36.1773 50.5486L44.4622 52.3489C44.6003 52.3489 44.7384 52.3489 44.8765 52.3489C45.4288 52.3489 45.8431 52.2105 46.2573 51.795L66.4172 31.8525C66.8314 31.4371 66.9695 31.0216 66.9695 30.4676C66.9695 29.9137 66.6934 29.4982 66.4172 29.0827L58.8227 21.4658L66.5552 13.7105H79.9492C80.0873 13.7105 80.2253 13.7105 80.3634 13.7105L89.615 11.3561C90.4434 11.0792 91.1338 10.3867 91.1338 9.41725V8.86335H93.067C94.1716 8.86335 95 8.03238 95 6.92446C95 5.81655 94.1716 4.84712 93.067 4.84712ZM44.3241 48.3328L39.6293 47.3633L48.1905 38.777L52.8851 39.7464L44.3241 48.3328ZM56.3372 36.4227L48.0523 34.6223C47.3619 34.4838 46.6716 34.6223 46.2573 35.1763L20.5742 60.9353C20.1599 61.3507 19.8837 62.0432 20.0218 62.7356L21.8168 71.045L20.436 72.4299L4.83285 56.7806C4.28053 56.2266 4.00431 55.5342 4.00431 54.8417C4.00431 54.1493 4.28053 53.4569 4.83285 52.9029L14.4986 43.2087L17.8126 46.5324C18.2268 46.9478 18.7791 47.0864 19.1934 47.0864C19.7457 47.0864 20.1599 46.9478 20.5742 46.5324C21.4027 45.7014 21.4027 44.455 20.5742 43.7626L17.2602 40.4389L20.0218 37.6691L23.3358 40.9928C23.7501 41.4083 24.3024 41.5468 24.7166 41.5468C25.269 41.5468 25.6832 41.4083 26.0974 40.9928C26.9259 40.1619 26.9259 38.9155 26.0974 38.223L22.7835 34.8993L25.5451 32.1295L28.8591 35.4532C29.2733 35.8687 29.8256 36.0072 30.2399 36.0072C30.6541 36.0072 31.2065 35.8687 31.6207 35.4532C32.4492 34.6223 32.4492 33.3759 31.6207 32.6834L28.3067 29.3597L42.391 15.2338C42.9433 14.6799 43.6337 14.4029 44.3241 14.4029C45.0145 14.4029 45.705 14.6799 46.2573 15.2338L62.2747 30.4676L56.3372 36.4227ZM71.3881 9.69425H65.5887C65.0364 9.69425 64.6222 9.97126 64.2079 10.2482L55.923 18.5576L51.9186 14.5414L61.5843 4.84712C62.1367 4.29317 62.8271 4.01622 63.5175 4.01622H71.25L71.3881 9.69425ZM87.1294 7.75537L79.673 9.69425H75.5305V4.15468H79.673L87.1294 6.09356V7.75537Z" fill="#EE741D"/>
<path d="M41.9769 22.9891C40.458 24.5125 40.458 27.1439 41.9769 28.6672C42.6673 29.3597 43.772 29.7751 44.7385 29.7751C45.7051 29.7751 46.8098 29.3597 47.5002 28.6672C49.0191 27.1439 49.0191 24.5125 47.5002 22.9891C46.8098 22.2967 45.7051 21.8812 44.7385 21.8812C43.772 21.7428 42.8054 22.1582 41.9769 22.9891Z" fill="#EE741D"/>
</svg>
