<svg width="86" height="85" viewBox="0 0 86 85" fill="none" xmlns="http://www.w3.org/2000/svg">
<path d="M84.6341 38.6887L71.6222 36.2437C70.7547 33.6548 68.2969 31.9289 65.4054 31.9289H56.5862V26.176L64.8271 23.731C70.8993 22.0051 71.6222 18.2656 71.6222 15.2453V1.86972C71.6222 0.862949 70.7547 0 69.7427 0H30.4178C29.4058 0 28.5383 0.862949 28.5383 1.86972V15.2453C28.5383 18.2656 29.2612 22.0051 35.3334 23.731L43.5743 26.176V31.9289H15.8156C14.9481 31.9289 14.2252 32.5042 13.9361 33.2233L11.7674 40.9899H5.1169V38.8325C5.1169 37.8257 4.24944 36.9628 3.2374 36.9628C2.22536 36.9628 1.35791 37.8257 1.35791 38.8325V46.599C1.35791 47.6058 2.22536 48.4687 3.2374 48.4687C4.24944 48.4687 5.1169 47.6058 5.1169 46.599V44.5855H10.7554L0.0567189 82.6988C-0.0878578 83.2741 0.0567145 83.8494 0.345868 84.2809C0.635021 84.7123 1.21333 85 1.79163 85H20.2975C23.6227 85 24.7793 82.6988 25.3576 80.3976C25.3576 80.11 25.5022 79.9662 25.3576 79.6785L23.7673 64.7208L26.948 53.5025H29.8395C29.6949 56.6667 29.9841 62.4196 33.7431 67.4535C34.1768 67.8849 34.6105 68.1726 35.1888 68.1726C35.6226 68.1726 36.0563 68.0288 36.3455 67.7411C37.2129 67.1658 37.3575 65.8714 36.6346 65.1523C33.4539 61.1252 33.3094 56.0914 33.4539 53.5025H65.1162C68.0077 53.5025 70.4656 51.6328 71.333 49.1878L84.3449 46.7428C85.2124 46.599 85.9352 45.736 85.9352 44.8731V40.2707C86.2244 39.5516 85.5015 38.8325 84.6341 38.6887ZM68.0077 3.73942V7.7665C65.9837 8.19797 64.8271 9.20474 63.815 10.0677C62.6584 11.0744 61.9355 11.6497 60.056 11.6497C58.3211 11.6497 57.4536 10.9306 56.297 10.0677C54.9958 8.91709 53.2609 7.47886 50.2248 7.47886C47.0441 7.47886 45.4538 8.91709 44.1526 10.0677C42.996 11.0744 42.2731 11.6497 40.3936 11.6497C38.6587 11.6497 37.7912 10.9306 36.6346 10.0677C35.6226 9.20474 34.3214 8.19797 32.4419 7.7665V3.73942H68.0077ZM36.49 20.1354C32.731 18.9848 32.4419 17.4027 32.4419 15.2453V11.6497C33.1648 11.9374 33.5985 12.3689 34.3214 12.9442C35.6226 14.0948 37.3575 15.533 40.3936 15.533C43.5743 15.533 45.1646 14.0948 46.4658 12.9442C47.6224 11.9374 48.3453 11.3621 50.2248 11.3621C51.9597 11.3621 52.8272 12.0812 53.9838 12.9442C55.285 14.0948 57.0199 15.533 60.056 15.533C63.2367 15.533 64.8271 14.0948 66.1282 12.9442C66.7066 12.3689 67.2849 11.9374 68.0077 11.6497V15.2453C68.0077 17.4027 67.7186 18.9848 63.9596 20.1354L54.273 23.0118C53.4055 23.2995 52.9718 24.0186 52.9718 24.7377V31.7851H47.4779V24.7377C47.4779 23.8748 46.8995 23.1557 46.1767 23.0118L36.49 20.1354ZM65.4054 50.0508H59.6223V46.7428C59.6223 45.7361 58.7548 44.8731 57.7428 44.8731C56.7308 44.8731 55.8633 45.7361 55.8633 46.7428V50.0508H52.1043V46.7428C52.1043 45.7361 51.2368 44.8731 50.2248 44.8731C49.2128 44.8731 48.3453 45.7361 48.3453 46.7428V50.0508H44.5863V46.7428C44.5863 45.7361 43.7189 44.8731 42.7068 44.8731C41.6948 44.8731 40.8273 45.7361 40.8273 46.7428V50.0508H25.7914C24.9239 50.0508 24.201 50.6261 23.9119 51.3452L20.2975 64.2893C20.2975 64.577 20.1529 64.7208 20.2975 65.0085L21.8878 79.9662C21.4541 81.4044 21.1649 81.4044 20.5866 81.4044H4.53859L17.4059 35.5245H65.4054C66.9957 35.5245 68.2969 36.819 68.2969 38.401V47.0305C68.2969 48.7564 66.9957 50.0508 65.4054 50.0508ZM82.4654 43.5787L72.2005 45.5922V40.1269L82.4654 42.1404V43.5787Z" fill="#EE741D"/>
</svg>
