<svg width="90" height="91" viewBox="0 0 90 91" fill="none" xmlns="http://www.w3.org/2000/svg">
<path d="M75.6873 63.5321H51.6333V55.3546C60.3425 52.6288 66.5634 44.4514 66.5634 34.8062C66.5634 22.8546 57.0247 13.2094 45.2051 13.2094C33.3854 13.2094 23.8468 22.8546 23.8468 34.8062C23.8468 44.4514 30.0676 52.6288 38.7769 55.3546V63.5321H14.5155C13.4787 63.5321 12.4419 64.3708 12.4419 65.6288C12.4419 66.6772 13.2713 67.7256 14.5155 67.7256H40.6431C41.6799 67.7256 42.7167 66.8869 42.7167 65.6288V56.1933C43.5462 56.1933 44.3756 56.403 45.2051 56.403C46.0345 56.403 46.864 56.403 47.6934 56.1933V65.6288C47.6934 66.6772 48.5229 67.7256 49.767 67.7256H75.8947C76.9315 67.7256 77.9683 66.8869 77.9683 65.6288C77.5536 64.5804 76.7241 63.5321 75.6873 63.5321ZM27.5793 34.8062C27.5793 25.161 35.4591 17.1934 44.9977 17.1934C54.5364 17.1934 62.4161 25.161 62.4161 34.8062C62.4161 44.4514 54.5364 52.4192 44.9977 52.4192C35.4591 52.4192 27.5793 44.4514 27.5793 34.8062Z" fill="#EE741D"/>
<path d="M49.5595 32.7094H43.7533L47.0711 25.3707C47.4859 24.3223 47.0711 23.0642 46.0343 22.6449C44.9975 22.2255 43.7533 22.6449 43.3386 23.6933L38.7766 33.7578C38.5693 34.3868 38.5693 35.2256 38.984 35.6449C39.3987 36.274 40.0208 36.6933 40.6429 36.6933H46.449L43.1312 44.032C42.7165 45.0804 43.1312 46.3385 44.1681 46.7578C44.3754 46.9675 44.7901 46.9674 44.9975 46.9674C45.827 46.9674 46.449 46.5481 46.8638 45.7094L51.4257 35.6449C51.6331 35.0159 51.6331 34.1771 51.2184 33.7578C50.8036 32.9191 50.1816 32.7094 49.5595 32.7094Z" fill="#EE741D"/>
<path d="M75.6871 0H14.308C6.42823 0 0 6.49993 0 14.4677V76.5323C0 84.5001 6.42823 91 14.308 91H75.6871C83.5669 91 89.9951 84.5001 89.9951 76.5323V14.4677C90.2025 6.49993 83.7743 0 75.6871 0ZM86.0552 76.742C86.0552 82.4032 81.4933 87.2258 75.6871 87.2258H14.308C8.70921 87.2258 3.93988 82.6129 3.93988 76.742V14.6774C3.93988 9.01614 8.50185 4.19355 14.308 4.19355H75.6871C81.2859 4.19355 86.0552 8.80646 86.0552 14.6774V76.742Z" fill="#EE741D"/>
<path d="M75.6873 72.7577H14.5155C13.4787 72.7577 12.4419 73.5964 12.4419 74.8545C12.4419 75.9029 13.2713 76.9512 14.5155 76.9512H75.6873C76.7241 76.9512 77.7609 76.1125 77.7609 74.8545C77.5536 73.5964 76.7241 72.7577 75.6873 72.7577Z" fill="#EE741D"/>
</svg>
