<svg width="92" height="73" viewBox="0 0 92 73" fill="none" xmlns="http://www.w3.org/2000/svg">
<path d="M32.5417 16.8826H55.843C57.0483 16.8826 58.0526 15.9015 58.0526 14.7242C58.0526 13.547 57.0483 12.5659 55.843 12.5659H32.5417C31.3365 12.5659 30.3322 13.547 30.3322 14.7242C30.3322 15.9015 31.3365 16.8826 32.5417 16.8826Z" fill="#EE741D"/>
<path d="M32.5417 25.5161H55.843C57.0483 25.5161 58.0526 24.535 58.0526 23.3577C58.0526 22.1805 57.0483 21.1994 55.843 21.1994H32.5417C31.3365 21.1994 30.3322 22.1805 30.3322 23.3577C30.3322 24.535 31.3365 25.5161 32.5417 25.5161Z" fill="#EE741D"/>
<path d="M58.0526 31.9912C58.0526 30.8139 57.0483 29.8329 55.843 29.8329H32.5417C31.3365 29.8329 30.3322 30.8139 30.3322 31.9912C30.3322 33.1685 31.3365 34.1496 32.5417 34.1496H55.843C57.0483 33.9534 58.0526 33.1685 58.0526 31.9912Z" fill="#EE741D"/>
<path d="M18.28 46.3147C13.4591 46.3147 9.44154 50.239 9.44154 54.9482C9.44154 59.6573 13.4591 63.5816 18.28 63.5816C23.101 63.5816 27.1185 59.6573 27.1185 54.9482C27.1185 50.239 23.101 46.3147 18.28 46.3147ZM18.28 59.2649C15.8695 59.2649 13.8607 57.3027 13.8607 54.9482C13.8607 52.5936 15.8695 50.6314 18.28 50.6314C20.6905 50.6314 22.6992 52.5936 22.6992 54.9482C22.6992 57.3027 20.6905 59.2649 18.28 59.2649Z" fill="#EE741D"/>
<path fill-rule="evenodd" clip-rule="evenodd" d="M19.1077 0.0140922L18.4803 0.00814031H10.2445C9.03927 0.00814031 8.03495 0.989195 8.03495 2.16648V40.0359C3.21398 43.3716 0 48.6694 0 54.9483C0 64.9552 8.23572 73 18.4803 73C25.5109 73 31.537 69.2719 34.751 63.5817H61.4673L68.6987 72.2151C69.1005 72.8038 69.7032 73 70.3058 73H84.7686C85.9738 73 86.9782 72.0189 86.9782 70.8416V47.8845H89.7904C90.9957 47.8845 92 46.9034 92 45.7261C92 44.5489 90.9957 43.5678 89.7904 43.5678H86.9782V31.9911H89.7904C90.9957 31.9911 92 31.0101 92 29.8328C92 28.6555 90.9957 27.6744 89.7904 27.6744H86.9782V12.5659C86.9782 5.69835 81.3383 0.0141141 74.3077 0.0141141H43.8769L39.1704 0L38.9231 0.0141141L19.1077 0.0140922ZM4.2183 54.9483C4.2183 62.6006 10.6463 68.6833 18.2795 68.6833C26.1135 68.6833 32.3406 62.4044 32.3406 54.9483C32.3406 47.2959 25.9127 41.2132 18.2795 41.2132C10.4454 41.2132 4.2183 47.4921 4.2183 54.9483ZM12.2532 37.8776C14.262 37.2889 16.2707 36.8965 18.2795 36.8965C28.524 36.8965 36.7597 44.9413 36.7597 54.9483C36.7597 56.518 36.559 57.8915 36.1573 59.265H82.559V18.8447L76.9345 22.5728V49.258C76.9345 50.4353 75.9302 51.4164 74.7249 51.4164C73.5197 51.4164 72.5154 50.4353 72.5154 49.258V21.3955C72.5154 20.6107 72.9171 20.022 73.5197 19.6296L82.559 13.5469V12.5659C82.559 8.05293 78.7423 4.32486 74.1222 4.32486H12.2532V37.8776ZM71.3102 68.6833H82.559V63.5817H67.0916L71.3102 68.6833Z" fill="#EE741D"/>
</svg>
