<svg width="76" height="76" viewBox="0 0 76 76" fill="none" xmlns="http://www.w3.org/2000/svg">
<path d="M8.00006 28.7615H22.087C24.3478 32.945 27.8262 35.5597 31.8262 35.5597H66.4348C71.8261 35.5597 76 27.7157 76 17.7799C76 7.84407 71.8261 0 66.4348 0H31.8262C27.8262 0 24.3478 2.61467 22.087 6.79817H8.00006C3.65224 6.79817 0.173977 11.6789 0.173977 17.7799C0.173977 23.8808 3.65224 28.7615 8.00006 28.7615ZM29.5652 10.2844C31.8261 10.2844 33.913 13.7707 33.913 17.7799C33.913 21.789 31.8261 25.2753 29.5652 25.2753H13.7392C14.9566 23.3578 15.8261 20.7432 15.8261 17.7799C15.8261 14.8166 14.9566 12.2018 13.7392 10.2844H29.5652ZM72.5217 17.7799C72.5217 26.1469 69.2174 32.0734 66.2609 32.0734H64.1739C65.7392 29.9817 66.7827 27.1927 67.4783 23.7065C67.6522 22.8349 66.9565 21.9633 66.0869 21.789C65.2174 21.6147 64.3478 22.312 64.1739 23.1836C63.1305 28.4129 60.8696 32.0734 58.4348 32.0734H56.5217C58.0869 29.9817 59.1305 27.1927 59.8261 23.7065C60 22.8349 59.3044 21.9633 58.4348 21.789C57.5653 21.6147 56.6956 22.312 56.5217 23.1836C55.4782 28.4129 53.2174 32.0734 50.7826 32.0734H39.1304C42.0869 28.9358 44.0001 23.7065 44.0001 17.7799C44.0001 11.8533 42.0869 6.62386 39.1304 3.48624H66.2609C69.2174 3.48624 72.5217 9.41288 72.5217 17.7799ZM31.8262 3.48624C36.6957 3.48624 40.6957 10.1101 40.6957 17.7799C40.6957 25.4496 36.6957 32.0734 31.8262 32.0734C29.7392 32.0734 27.8261 30.8533 26.2609 28.7615H29.5652C33.913 28.7615 37.3913 23.8808 37.3913 17.7799C37.3913 11.6789 33.913 6.79817 29.5652 6.79817H26.2609C27.6522 4.70642 29.5653 3.48624 31.8262 3.48624ZM8.00006 10.2844C10.2609 10.2844 12.3479 13.7707 12.3479 17.7799C12.3479 21.789 10.2609 25.2753 8.00006 25.2753C5.73919 25.2753 3.65224 21.789 3.65224 17.7799C3.65224 13.7707 5.73919 10.2844 8.00006 10.2844Z" fill="#EE741D"/>
<path d="M66.2609 40.4403H31.6522C27.6522 40.4403 24.174 43.055 21.9131 47.2385H7.82608C3.47826 47.2385 0 52.1192 0 58.2201C0 64.3211 3.47826 69.2018 7.82608 69.2018H21.9131C24.174 73.3853 27.6522 76 31.6522 76H66.2609C71.6522 76 75.8261 68.1559 75.8261 58.2201C75.8261 48.2843 71.6522 40.4403 66.2609 40.4403ZM29.5652 50.7247C31.8261 50.7247 33.913 54.2109 33.913 58.2201C33.913 62.2293 31.8261 65.7156 29.5652 65.7156H13.7392C14.9566 63.7982 15.8261 61.1834 15.8261 58.2201C15.8261 55.2568 14.9566 52.6422 13.7392 50.7247H29.5652ZM3.65224 58.2201C3.65224 54.2109 5.73919 50.7247 8.00006 50.7247C10.2609 50.7247 12.3479 54.2109 12.3479 58.2201C12.3479 62.2293 10.2609 65.7156 8.00006 65.7156C5.73919 65.7156 3.65224 62.2293 3.65224 58.2201ZM26.0869 69.2018H29.3913C33.7392 69.2018 37.2174 64.3211 37.2174 58.2201C37.2174 52.1192 33.7392 47.2385 29.3913 47.2385H26.0869C27.6522 45.1467 29.5652 43.9266 31.6522 43.9266C36.5217 43.9266 40.5218 50.5504 40.5218 58.2201C40.5218 65.8899 36.5217 72.5138 31.6522 72.5138C29.5652 72.5138 27.6522 71.2936 26.0869 69.2018ZM66.2609 72.5138H64.1739C65.7392 70.422 66.7827 67.633 67.4783 64.1468C67.6522 63.2752 66.9565 62.4037 66.0869 62.2293C65.2174 62.055 64.3478 62.7523 64.1739 63.6238C63.1305 68.8532 60.8696 72.5138 58.4348 72.5138H56.5217C58.0869 70.422 59.1305 67.633 59.8261 64.1468C60 63.2752 59.3044 62.4037 58.4348 62.2293C57.5653 62.055 56.6956 62.7523 56.5217 63.6238C55.4782 68.8532 53.2174 72.5138 50.7826 72.5138H39.1304C42.0869 69.3761 44.0001 64.1467 44.0001 58.2201C44.0001 52.2935 42.0869 47.0642 39.1304 43.9266H66.2609C69.2174 43.9266 72.5217 49.8531 72.5217 58.2201C72.5217 66.5871 69.2174 72.5138 66.2609 72.5138Z" fill="#EE741D"/>
</svg>
