<svg width="92" height="92" viewBox="0 0 92 92" fill="none" xmlns="http://www.w3.org/2000/svg">
<path d="M22.8926 61.8256H16.9575L20.349 54.4403C20.7729 53.3853 20.349 52.1192 19.2891 51.6972C18.2293 51.2752 16.9575 51.6972 16.5335 52.7522L11.8702 62.8807C11.6582 63.5137 11.6583 64.3578 12.0823 64.7798C12.5062 65.4128 13.1421 65.8348 13.778 65.8348H19.7131L16.3216 73.2202C15.8977 74.2752 16.3216 75.5412 17.3815 75.9633C17.5934 76.1743 18.0173 76.1743 18.2293 76.1743C19.0771 76.1743 19.7131 75.7522 20.137 74.9082L24.8004 64.7798C25.0123 64.1468 25.0123 63.3027 24.5883 62.8807C24.1644 62.2477 23.5285 61.8256 22.8926 61.8256Z" fill="#EE741D"/>
<path d="M29.2516 0H7.20685C3.17945 0 0 3.16516 0 7.17433V15.4037C0 16.4587 0.847874 17.5138 2.11969 17.5138H9.11462V36.0826H2.11969C1.05984 36.0826 0 36.9266 0 38.1927V89.8899C0 90.945 0.847874 92 2.11969 92H34.5509C35.6107 92 36.6705 91.156 36.6705 89.8899V38.1927C36.6705 37.1376 35.8227 36.0826 34.5509 36.0826H27.5559V17.5138H34.5509C35.6107 17.5138 36.6705 16.6697 36.6705 15.4037V7.17433C36.4586 3.16516 33.279 0 29.2516 0ZM32.2193 87.5688H4.02733V40.0917H32.2193V87.5688ZM23.1045 35.8716H13.1421V17.3028H23.1045V35.8716ZM32.2193 13.2936H4.02733V7.17433C4.02733 5.48626 5.29919 4.22018 6.99494 4.22018H15.8976V6.75232C15.8976 7.80736 16.7455 8.86241 18.0173 8.86241C19.0772 8.86241 20.137 8.01837 20.137 6.75232V4.22018H29.0397C30.7355 4.22018 32.0072 5.48626 32.0072 7.17433V13.2936H32.2193Z" fill="#EE741D"/>
<path d="M79.2762 0H76.9446C75.8847 0 74.8249 0.844037 74.8249 2.11009V24.6881C74.8249 25.9542 73.977 26.7982 72.7052 26.7982H64.4384C63.1666 26.7982 62.3187 25.9542 62.3187 24.6881V2.11009C62.3187 1.05505 61.4708 0 60.199 0H57.8674C50.8724 0 45.1493 5.69725 45.1493 12.6606V31.0184C45.1493 36.7156 48.9647 41.5688 54.2639 43.2569V59.7156C54.2639 60.7706 55.1118 61.8257 56.3836 61.8257H59.3512V89.8899C59.3512 90.945 60.1991 92 61.4709 92H75.6728C76.7327 92 77.7925 91.156 77.7925 89.8899V61.8257H80.76C81.8198 61.8257 82.8797 60.9817 82.8797 59.7156V43.2569C88.1789 41.7798 91.9943 36.7156 91.9943 31.0184V12.6606C92.2063 5.69725 86.4831 0 79.2762 0ZM73.7651 87.5688H63.8025V61.6147H73.7651V87.5688ZM87.967 31.0184C87.967 35.2386 84.7874 38.8257 80.5481 39.4587C79.4882 39.6697 78.8524 40.5138 78.8524 41.5688V47.8991H75.8847C74.8249 47.8991 73.7651 48.7431 73.7651 50.0092C73.7651 51.0642 74.6129 52.1193 75.8847 52.1193H78.8524V57.8165H58.7153V51.9083H61.6828C62.7427 51.9083 63.8025 51.0642 63.8025 49.7982C63.8025 48.7431 62.9546 47.6881 61.6828 47.6881H58.7153V41.3578C58.7153 40.3028 57.8674 39.4587 57.0195 39.2477C52.7801 38.6147 49.6006 35.0275 49.6006 30.8073V12.4496C49.6006 7.80736 53.4161 3.79817 58.2914 3.79817H58.5033V24.2661C58.5033 27.6422 61.2589 30.5963 64.8623 30.5963H73.1292C76.5207 30.5963 79.4882 27.8532 79.4882 24.2661V3.79817H79.7001C84.3635 3.79817 88.3909 7.59635 88.3909 12.4496V31.0184H87.967Z" fill="#EE741D"/>
</svg>
