<svg width="52" height="51" viewBox="0 0 52 51" fill="none" xmlns="http://www.w3.org/2000/svg">
<path d="M31.6148 25.6222C30.596 26.0208 29.4679 25.9793 28.4727 25.4944L10.6471 16.9248C9.77161 16.5039 9.76344 15.2603 10.6332 14.828L28.1911 6.09899C29.2901 5.55952 30.5507 5.55952 31.6498 6.09899L31.6319 3.91425L29.8464 3.03771C27.0945 1.68681 23.8755 1.68681 21.1235 3.03771L5.08856 10.9094C0.951542 12.9402 0.960501 18.8638 5.10359 20.8822L21.1504 28.6995C23.8876 30.033 27.0823 30.033 29.8195 28.6995L31.5575 27.6764L31.6148 25.6222Z" fill="#C8D3DC"/>
<path d="M25.586 51C24.217 51 22.85 50.7668 21.5528 50.3013L12.3301 46.9921C8.84357 45.741 6.69488 42.296 7.10482 38.6145L7.87295 31.717C7.9947 30.6243 8.97976 29.8369 10.072 29.9586C11.1649 30.0804 11.9521 31.0648 11.8305 32.1578L11.0624 39.0553C10.8574 40.896 11.9317 42.6185 13.6751 43.244L22.8977 46.5533C24.5792 47.1568 26.4377 47.1748 28.1309 46.6042L38.2516 43.1401C38.7362 42.9646 39.1742 42.7157 39.519 42.4198C40.3535 41.7036 41.6105 41.7996 42.3267 42.634C43.0427 43.4684 42.9469 44.7254 42.1124 45.4415C41.4001 46.0528 40.5259 46.5546 39.5843 46.8924C39.5751 46.8957 29.4115 50.3746 29.4115 50.3746C28.1736 50.7918 26.8789 51 25.586 51ZM30.6937 30.4882L33.1286 29.2982C34.1165 28.8153 34.526 27.6231 34.0432 26.6351C33.5603 25.6473 32.3681 25.2382 31.3802 25.7206L28.9475 26.9095C26.747 27.9815 24.2229 27.9816 22.0225 26.9094L5.97552 19.0923C4.72935 18.4852 3.98422 17.2909 3.98203 15.8975C3.97994 14.504 4.72159 13.3074 5.96597 12.6966L22.0009 4.82493C24.2149 3.73794 26.7547 3.73794 28.969 4.82493L45.0039 12.6965C46.1982 13.2828 46.9532 14.4365 47.0235 15.783C47.0923 17.0992 46.497 18.2847 45.4309 18.9544C44.4997 19.5393 44.2191 20.7683 44.804 21.6994C45.3888 22.6305 46.618 22.9112 47.549 22.3263C49.8553 20.8776 51.1453 18.3538 51 15.575C50.8531 12.766 49.2675 10.3537 46.7585 9.12202L30.7238 1.25047C27.3944 -0.383946 23.5755 -0.383946 20.2461 1.25047L4.21119 9.12202C1.60924 10.3993 -0.00437132 12.9978 8.89513e-06 15.9035C0.00438911 18.8092 1.62587 21.4027 4.2316 22.6721L20.2784 30.4893C21.9327 31.2953 23.7081 31.6983 25.4843 31.6983C27.2608 31.6982 29.038 31.2949 30.6937 30.4882Z" fill="#636B7A"/>
<path d="M37.7683 19.6012L28.4776 15.0186C28.147 13.7291 26.9771 12.776 25.5845 12.776C23.935 12.776 22.598 14.1132 22.598 15.7625C22.598 17.4119 23.935 18.749 25.5845 18.749C25.9582 18.749 26.3159 18.6804 26.6456 18.555L36.0069 23.1723C37.3765 23.8479 38.2274 25.2163 38.2274 26.7435V35.9711C38.2274 37.0708 39.1187 37.9621 40.2184 37.9621C41.318 37.9621 42.2094 37.0708 42.2094 35.9711V26.7435C42.2094 23.689 40.5077 20.9522 37.7683 19.6012Z" fill="#EE741D"/>
</svg>
