<svg width="54" height="51" viewBox="0 0 54 51" fill="none" xmlns="http://www.w3.org/2000/svg">
<path d="M8.63652 29.9396V12.6579C8.63652 6.84342 13.3386 2.12988 19.139 2.12988H12.7441C6.92723 2.12988 2.21179 6.84532 2.21179 12.6622V29.9353C2.21179 35.7521 6.92723 40.4676 12.7441 40.4676H19.139C13.3386 40.4676 8.63652 35.7541 8.63652 29.9396Z" fill="#C8D3DC"/>
<path d="M41.2868 0.0234375H12.6388C5.66977 0.0234375 0 5.69321 0 12.6623V29.9375C0 36.9054 5.66883 42.5741 12.6366 42.5741H41.2868C48.2558 42.5741 53.9256 36.9044 53.9256 29.9353V12.6623C53.9256 5.69321 48.2558 0.0234375 41.2868 0.0234375ZM49.7127 29.9353C49.7127 34.5813 45.9328 38.3612 41.2868 38.3612H12.6366C7.99184 38.3612 4.21294 34.5823 4.21294 29.9375V12.6623C4.21294 8.01623 7.99279 4.23638 12.6388 4.23638H41.2868C45.9328 4.23638 49.7127 8.01623 49.7127 12.6623V29.9353ZM39.1803 48.8935C39.1803 50.0569 38.2373 51 37.0739 51H16.8518C15.6884 51 14.7453 50.0569 14.7453 48.8935C14.7453 47.7301 15.6884 46.7871 16.8518 46.7871H37.0739C38.2373 46.7871 39.1803 47.7301 39.1803 48.8935ZM37.4853 10.8351C43.2468 16.5968 43.2468 25.9718 37.4853 31.7335C37.074 32.1448 36.5348 32.3505 35.9957 32.3505C35.4565 32.3505 34.9176 32.1449 34.5062 31.7336C33.6835 30.9109 33.6834 29.5772 34.5061 28.7546C38.6251 24.6355 38.6251 17.9332 34.5061 13.8141C33.6834 12.9914 33.6835 11.6577 34.5062 10.8351C35.3289 10.0126 36.6626 10.0124 37.4853 10.8351ZM19.4193 13.8141C15.3002 17.9332 15.3002 24.6355 19.4193 28.7546C20.242 29.5773 20.242 30.911 19.4193 31.7336C19.008 32.1448 18.4689 32.3505 17.9298 32.3505C17.3907 32.3505 16.8518 32.1449 16.4404 31.7335C10.6786 25.9718 10.6786 16.5968 16.4404 10.835C17.263 10.0125 18.5968 10.0123 19.4193 10.835C20.2419 11.6577 20.242 12.9915 19.4193 13.8141Z" fill="#636B7A"/>
<path d="M26.9628 27.5128C23.4783 27.5128 20.6434 24.678 20.6434 21.1934C20.6434 17.7089 23.4783 14.874 26.9628 14.874C30.4474 14.874 33.2822 17.7089 33.2822 21.1934C33.2822 24.678 30.4474 27.5128 26.9628 27.5128ZM26.9628 19.087C25.8013 19.087 24.8564 20.0319 24.8564 21.1934C24.8564 22.3549 25.8013 23.2999 26.9628 23.2999C28.1243 23.2999 29.0693 22.3549 29.0693 21.1934C29.0693 20.0319 28.1243 19.087 26.9628 19.087Z" fill="#EE741D"/>
</svg>
