<svg width="51" height="51" viewBox="0 0 51 51" fill="none" xmlns="http://www.w3.org/2000/svg">
<path d="M7.76932 43.6255V26.1942C7.76932 24.3295 8.71858 22.6868 10.1599 21.7218C9.30517 21.1495 8.47673 20.8154 7.37089 20.8154C4.4003 20.8154 1.9921 23.2235 1.9921 26.1942V43.6255C1.9921 46.5961 4.4003 49.0043 7.37089 49.0043C8.47673 49.0043 9.30517 48.6702 10.1599 48.098C8.71858 47.133 7.76932 45.4903 7.76932 43.6255Z" fill="#C8D3DC"/>
<path d="M7.37088 22.8075H12.7497C13.8499 22.8075 14.7418 21.9157 14.7418 20.8154C14.7418 19.7151 13.8499 18.8232 12.7497 18.8232H7.37088C3.3065 18.8232 -6.10352e-05 22.1298 -6.10352e-05 26.1942V43.6255C-6.10352e-05 47.6898 3.3065 50.9964 7.37088 50.9964H12.7497C13.8499 50.9964 14.7418 50.1045 14.7418 49.0043C14.7418 47.904 13.8499 47.0121 12.7497 47.0121H7.37088C5.50344 47.0121 3.98423 45.4929 3.98423 43.6255V26.1942C3.98423 24.3267 5.50344 22.8075 7.37088 22.8075Z" fill="#636B7A"/>
<path d="M50.9989 30.2322C50.9989 28.3657 50.101 26.7052 48.7149 25.6589C49.2159 24.8083 49.5048 23.8183 49.5048 22.7617C49.5048 19.6035 46.9355 17.0342 43.778 17.0342L33.7729 17.0312C35.6424 13.1067 36.2368 11.2702 36.7902 8.72978C37.6334 4.85943 36.2489 1.77798 33.0869 0.486671C31.4438 -0.184383 29.7213 -0.160777 28.237 0.553209C27.1373 1.08222 26.2016 1.97909 25.5331 3.12925C25.2879 3.55109 25.0943 4.00052 24.9359 4.4621C24.4931 5.75311 23.5193 8.4434 22.8421 9.72416C21.914 11.4793 19.7662 14.0591 17.8465 15.725C17.0156 16.4461 16.9265 17.7043 17.6476 18.5352C18.3686 19.3662 19.6269 19.4554 20.4579 18.7342C22.7718 16.7263 25.2006 13.7871 26.3642 11.5869C27.361 9.70204 28.5834 6.10721 28.7737 5.54035C29.0578 4.87188 29.479 4.37713 29.9642 4.14375C30.4332 3.91814 30.9772 3.9288 31.5807 4.17523C32.1141 4.39307 33.5313 4.97179 32.8973 7.88162C32.3469 10.4082 31.7928 12.1413 28.7977 18.1315C28.4889 18.749 28.5219 19.4823 28.8848 20.0696C29.2476 20.6569 29.8886 21.0144 30.579 21.0146L43.7776 21.0185C44.7288 21.0185 45.5047 21.7845 45.5205 22.7321C45.5368 23.7069 44.7064 24.5048 43.7314 24.5048H38.8947C37.8145 24.5048 36.8945 25.3448 36.8562 26.4243C36.8159 27.5577 37.7226 28.4891 38.847 28.4891H45.2256C46.2006 28.4891 47.0309 29.2868 47.0146 30.2618C46.9988 31.2094 46.223 31.9753 45.2717 31.9753H38.8947C37.8145 31.9753 36.8945 32.8153 36.8562 33.8949C36.8159 35.0282 37.7226 35.9596 38.847 35.9596H44.9267C45.9018 35.9596 46.7321 36.7574 46.7158 37.7323C46.6999 38.6799 45.9242 39.4459 44.9729 39.4459H42.3374C42.2862 39.4445 42.2352 39.442 42.1838 39.442C42.1579 39.442 42.1326 39.4449 42.1069 39.4459H38.8947C37.8145 39.4459 36.8945 40.2859 36.8562 41.3654C36.8159 42.4988 37.7226 43.4302 38.847 43.4302H42.2515C43.1514 43.4709 43.927 44.3133 43.927 45.2729C43.927 46.234 43.145 47.016 42.1842 47.016L20.7189 47.0122C20.7187 47.0122 20.7186 47.0122 20.7185 47.0122C19.6184 47.0122 18.7265 47.9038 18.7263 49.004C18.7261 50.1042 19.6178 50.9963 20.7181 50.9965L42.1838 51.0003C45.342 51.0003 47.9113 48.4311 47.9113 45.2729C47.9113 44.4408 47.7349 43.6317 47.4021 42.8879C49.3488 41.9722 50.7003 39.9927 50.7003 37.7028C50.7003 36.3571 50.2326 35.1192 49.4529 34.1406C50.4107 33.1163 50.9989 31.7421 50.9989 30.2322Z" fill="#636B7A"/>
<path d="M12.7497 43.5259C11.6494 43.5259 10.7575 42.634 10.7575 41.5337V28.286C10.7575 27.1857 11.6494 26.2938 12.7497 26.2938C13.8499 26.2938 14.7418 27.1857 14.7418 28.286V41.5337C14.7418 42.634 13.8499 43.5259 12.7497 43.5259Z" fill="#EE741D"/>
</svg>
