<svg width="51" height="51" viewBox="0 0 51 51" fill="none" xmlns="http://www.w3.org/2000/svg">
<path d="M28.5792 36.5312C27.6037 36.8069 26.5726 36.9551 25.5 36.9551C19.1735 36.9551 14.0449 31.8265 14.0449 25.5C14.0449 19.1735 19.1735 14.0449 25.5 14.0449C26.5726 14.0449 27.6037 14.1931 28.5792 14.4688C23.7572 15.8197 20.2207 20.2466 20.2207 25.5C20.2207 30.7534 23.7572 35.1804 28.5792 36.5312ZM7.96875 25.5C7.96875 13.5293 16.9163 3.64849 28.4883 2.18045C27.5097 2.05624 26.5123 1.99219 25.5 1.99219C12.517 1.99219 1.99219 12.517 1.99219 25.5C1.99219 38.483 12.517 49.0078 25.5 49.0078C26.5123 49.0078 27.5097 48.9438 28.4883 48.8196C16.9163 47.3515 7.96875 37.4707 7.96875 25.5Z" fill="#C8D3DC"/>
<path d="M25.5 51C18.6887 51 12.2851 48.3475 7.46871 43.5313C2.6525 38.715 0 32.3113 0 25.5C0 18.6887 2.6525 12.2851 7.46871 7.46871C12.2851 2.6525 18.6887 0 25.5 0C33.7001 0 41.4535 3.95798 46.2403 10.5877C46.8842 11.4798 46.6832 12.725 45.7911 13.3691C44.8992 14.0131 43.6539 13.812 43.0097 12.92C38.9701 7.32487 32.4243 3.98438 25.5 3.98438C13.6362 3.98438 3.98438 13.6363 3.98438 25.5C3.98438 37.3637 13.6362 47.0156 25.5 47.0156C32.4243 47.0156 38.9701 43.6751 43.0097 38.0799C43.6539 37.1879 44.8992 36.9868 45.7911 37.6308C46.6832 38.2749 46.8842 39.5201 46.2403 40.4122C41.4535 47.042 33.7001 51 25.5 51ZM35.099 34.8548C35.8645 34.0645 35.8442 32.8033 35.054 32.0378C34.2635 31.2723 33.0025 31.2925 32.237 32.0828C30.438 33.94 28.0455 34.9629 25.5 34.9629C20.2822 34.9629 16.0371 30.7178 16.0371 25.5C16.0371 20.2822 20.2822 16.0371 25.5 16.0371C28.0455 16.0371 30.438 17.06 32.237 18.9173C33.0025 19.7076 34.2637 19.7277 35.054 18.9623C35.8443 18.1968 35.8645 16.9356 35.099 16.1453C32.5428 13.5061 29.1337 12.0527 25.5 12.0527C18.0852 12.0527 12.0527 18.0852 12.0527 25.5C12.0527 32.9148 18.0852 38.9473 25.5 38.9473C29.1339 38.9473 32.5429 37.4939 35.099 34.8548Z" fill="#636B7A"/>
<path d="M48.06 27.5261C47.5151 26.9842 47.2148 26.2647 47.2148 25.5C47.2148 24.7353 47.5151 24.0159 48.06 23.474L50.4123 21.1355C51.1925 20.3598 51.1963 19.0984 50.4206 18.3182C49.6448 17.5378 48.3832 17.5342 47.6032 18.3098L45.2509 20.6484C44.4348 21.4597 43.8485 22.4389 43.5242 23.5079H25.5C24.3997 23.5079 23.5078 24.3998 23.5078 25.5001C23.5078 26.6004 24.3997 27.4923 25.5 27.4923H43.5242C43.8485 28.5613 44.4348 29.5406 45.2509 30.3519L47.6032 32.6903C47.992 33.0766 48.4998 33.2696 49.0078 33.2696C49.5196 33.2696 50.0313 33.0735 50.4207 32.6819C51.1964 31.9016 51.1926 30.6402 50.4124 29.8645L48.06 27.5261Z" fill="#EE741D"/>
</svg>
