<svg width="51" height="51" viewBox="0 0 51 51" fill="none" xmlns="http://www.w3.org/2000/svg">
<path d="M40.8398 23.6515C40.2204 22.9493 39.8438 22.0276 39.8438 21.0176V17.8301C39.8438 16.8199 40.2202 15.898 40.8398 15.1958V13.8456H37.8516C35.6511 13.8456 33.8672 15.6295 33.8672 17.83V21.0175C33.8672 23.2179 35.6511 25.0018 37.8516 25.0018H40.8398V23.6515Z" fill="#C8D3DC"/>
<path d="M41.8361 47.0155C40.7359 47.0155 39.844 46.1236 39.844 45.0233C39.844 39.5308 35.3756 35.0624 29.883 35.0624H7.96875C3.57478 35.0624 0 31.4876 0 27.0936V18.826C0.105187 16.1828 3.88008 16.1848 3.98438 18.826V27.0936C3.98438 29.2906 5.77177 31.078 7.96875 31.078H29.883C36.784 31.078 42.5304 36.1169 43.6362 42.7086C45.6075 41.9757 47.0156 40.0751 47.0156 37.8516V28.9862C47.0156 27.8877 46.1219 26.994 45.0234 26.994H37.8516C34.5561 26.994 31.875 24.3129 31.875 21.0175V17.83C31.875 14.5345 34.5561 11.8534 37.8516 11.8534H40.7402C43.3835 11.9586 43.3815 15.7335 40.7402 15.8378H37.8516C36.7531 15.8378 35.8594 16.7315 35.8594 17.83V21.0175C35.8594 22.1159 36.7531 23.0096 37.8516 23.0096H45.0234C48.3189 23.0096 51 25.6907 51 28.9862V37.8516C51 42.9046 46.8891 47.0155 41.8361 47.0155ZM27.8906 25.1014V11.8285C27.8906 9.64525 29.6669 7.86902 31.8501 7.86902H39.0469C43.4408 7.86902 47.0156 11.4438 47.0156 15.8378V18.2284C47.1208 20.8716 50.8957 20.8696 51 18.2284V15.8378C51 9.24682 45.6378 3.88464 39.0469 3.88464H31.8501C27.4699 3.88464 23.9062 7.44827 23.9062 11.8285V25.1014C23.9062 26.2017 24.7982 27.0936 25.8984 27.0936C26.9987 27.0936 27.8906 26.2017 27.8906 25.1014Z" fill="#636B7A"/>
<path d="M0.573352 9.25068C-0.19902 8.46705 -0.189855 7.2057 0.593771 6.43333C1.3773 5.66096 2.63855 5.67012 3.41102 6.45375L7.99933 11.1089C8.81115 11.9632 10.2684 11.9627 11.0809 11.1062L21.4946 0.589946C22.2687 -0.191789 23.5302 -0.198164 24.312 0.5762C25.0937 1.35036 25.0999 2.61172 24.3257 3.39355L13.9125 13.9091C11.6133 16.3315 7.46363 16.3313 5.16435 13.9085L0.573352 9.25068ZM35.8596 45.023C35.8596 48.3185 33.1785 50.9996 29.883 50.9996C21.9543 50.6712 21.9566 39.3736 29.883 39.0464C33.1785 39.0464 35.8596 41.7275 35.8596 45.023ZM31.8752 45.023C31.8752 43.9245 30.9815 43.0308 29.883 43.0308C27.2401 43.1402 27.2409 46.9062 29.883 47.0152C30.9815 47.0152 31.8752 46.1216 31.8752 45.023ZM20.0215 44.9234C20.0215 46.0237 19.1296 46.9156 18.0293 46.9156H11.6442C9.42006 53.2497 0.133875 51.8179 0 45.0229C0.121225 38.3449 9.18378 36.7891 11.5745 42.9312H18.0293C19.1296 42.9312 20.0215 43.8231 20.0215 44.9234ZM7.96875 45.023C7.96875 43.9245 7.07505 43.0308 5.97656 43.0308C3.33363 43.1402 3.33442 46.9062 5.97656 47.0152C7.07505 47.0152 7.96875 46.1216 7.96875 45.023Z" fill="#EE741D"/>
</svg>
