<svg width="9" height="12" viewBox="0 0 9 12" fill="none" xmlns="http://www.w3.org/2000/svg">
<path d="M4.5 2.57958C3.35014 2.57958 2.41464 3.57898 2.41464 4.80738C2.41464 6.03579 3.35014 7.03519 4.5 7.03519C5.64986 7.03519 6.58536 6.03579 6.58536 4.80738C6.58536 3.57898 5.64988 2.57958 4.5 2.57958ZM4.5 6.09717C3.83429 6.09717 3.29268 5.51857 3.29268 4.80738C3.29268 4.0962 3.83429 3.51759 4.5 3.51759C5.16571 3.51759 5.70732 4.0962 5.70732 4.80738C5.70732 5.51857 5.16571 6.09717 4.5 6.09717Z" fill="black"/>
<path d="M4.5 0C2.01869 0 0 2.1566 0 4.80738V4.94027C0 6.2809 0.719465 7.84315 2.13847 9.58355C3.16715 10.8452 4.18145 11.725 4.2241 11.7618L4.5 12L4.7759 11.7619C4.81857 11.725 5.83288 10.8453 6.86153 9.58357C8.28051 7.84315 9 6.28092 9 4.9403V4.80741C9 2.1566 6.98131 0 4.5 0ZM8.12196 4.9403C8.12196 7.20588 5.38945 9.94842 4.5 10.781C3.61031 9.94816 0.878039 7.20572 0.878039 4.9403V4.80741C0.878039 2.67384 2.50286 0.938039 4.5 0.938039C6.49714 0.938039 8.12196 2.67384 8.12196 4.80741V4.9403Z" fill="black"/>
</svg>
