<svg width="16" height="12" viewBox="0 0 16 12" fill="none" xmlns="http://www.w3.org/2000/svg">
<path d="M0 1C0 0.447715 0.447715 0 1 0H11C11.5523 0 12 0.447715 12 1C12 1.55228 11.5523 2 11 2H1C0.447715 2 0 1.55228 0 1Z" fill="#EE741D"/>
<path d="M14 1C14 0.447715 14.4477 0 15 0C15.5523 0 16 0.447715 16 1C16 1.55228 15.5523 2 15 2C14.4477 2 14 1.55228 14 1Z" fill="#EE741D"/>
<path d="M0 6C0 5.44772 0.447715 5 1 5H11C11.5523 5 12 5.44772 12 6C12 6.55228 11.5523 7 11 7H1C0.447715 7 0 6.55228 0 6Z" fill="#EE741D"/>
<path d="M14 6C14 5.44772 14.4477 5 15 5C15.5523 5 16 5.44772 16 6C16 6.55228 15.5523 7 15 7C14.4477 7 14 6.55228 14 6Z" fill="#EE741D"/>
<path d="M0 11C0 10.4477 0.447715 10 1 10H11C11.5523 10 12 10.4477 12 11C12 11.5523 11.5523 12 11 12H1C0.447715 12 0 11.5523 0 11Z" fill="#EE741D"/>
<path d="M14 11C14 10.4477 14.4477 10 15 10C15.5523 10 16 10.4477 16 11C16 11.5523 15.5523 12 15 12C14.4477 12 14 11.5523 14 11Z" fill="#EE741D"/>
</svg>
