<svg width="12" height="12" viewBox="0 0 12 12" fill="none" xmlns="http://www.w3.org/2000/svg">
<path d="M11.8638 5.54087L6.97964 0.62455C6.97338 0.618222 6.96689 0.612081 6.96028 0.606128C6.42696 0.127277 5.62106 0.125566 5.0857 0.602167C5.07904 0.608097 5.07258 0.614214 5.06627 0.620495L0.137622 5.53944C-0.0456121 5.72235 -0.0459168 6.01914 0.136966 6.20237C0.319872 6.3856 0.616661 6.38589 0.799872 6.20303L1.17187 5.83175V9.87903C1.17187 10.9129 2.013 11.754 3.04687 11.754H4.73437C4.99326 11.754 5.20312 11.5442 5.20312 11.2853V7.46497H6.84375V11.2853C6.84375 11.5442 7.05361 11.754 7.3125 11.754H8.95312C9.987 11.754 10.8281 10.9129 10.8281 9.87903C10.8281 9.62014 10.6183 9.41028 10.3594 9.41028C10.1005 9.41028 9.89062 9.62014 9.89062 9.87903C9.89062 10.396 9.47006 10.8165 8.95312 10.8165H7.78125V6.99622C7.78125 6.73733 7.57139 6.52747 7.3125 6.52747H4.73437C4.47548 6.52747 4.26562 6.73733 4.26562 6.99622V10.8165H3.04687C2.52993 10.8165 2.10937 10.396 2.10937 9.87903V4.91028C2.10937 4.9056 2.1093 4.90093 2.10916 4.89629L5.71748 1.2951C5.8931 1.14596 6.15068 1.14653 6.32561 1.29639L9.89062 4.8849V7.53528C9.89062 7.79417 10.1005 8.00403 10.3594 8.00403C10.6183 8.00403 10.8281 7.79417 10.8281 7.53528V5.82857L11.1987 6.20162C11.2903 6.29385 11.4108 6.34 11.5312 6.34C11.6507 6.34 11.7702 6.2946 11.8616 6.20378C12.0453 6.02132 12.0463 5.72453 11.8638 5.54087Z" fill="#D95A2B"/>
</svg>
