<svg width="14" height="14" viewBox="0 0 14 14" fill="none" xmlns="http://www.w3.org/2000/svg">
<path d="M13.9644 4.11605C13.9316 3.37217 13.8113 2.86077 13.6389 2.41762C13.4611 1.94724 13.1876 1.52611 12.8292 1.17601C12.4791 0.820475 12.0551 0.544206 11.59 0.369214C11.1442 0.196893 10.6354 0.076599 9.89139 0.0438014C9.14182 0.00822611 8.90386 0 7.00273 0C5.10159 0 4.86363 0.00822611 4.11684 0.0410238C3.37282 0.0738214 2.86131 0.194222 2.41819 0.366436C1.94761 0.544206 1.5264 0.817698 1.17624 1.17601C0.820632 1.52611 0.544417 1.95002 0.369284 2.41495C0.19693 2.86077 0.0766137 3.3694 0.0438098 4.11327C0.00822768 4.8627 0 5.10062 0 7.00139C0 8.90216 0.00822768 9.14007 0.0410316 9.88673C0.0738355 10.6306 0.194259 11.142 0.366613 11.5852C0.544417 12.0555 0.820632 12.4767 1.17624 12.8268C1.5264 13.1823 1.95039 13.4586 2.41541 13.6336C2.86131 13.8059 3.37004 13.9262 4.11416 13.959C4.86085 13.9919 5.09892 14 7.00005 14C8.90118 14 9.13915 13.9919 9.88594 13.959C10.63 13.9262 11.1415 13.8059 11.5846 13.6336C12.5256 13.2698 13.2697 12.5259 13.6335 11.5852C13.8057 11.1393 13.9262 10.6306 13.959 9.88673C13.9918 9.14007 14 8.90216 14 7.00139C14 5.10062 13.9972 4.8627 13.9644 4.11605ZM12.7034 9.83203C12.6733 10.5158 12.5584 10.885 12.4627 11.1311C12.2274 11.741 11.7433 12.2251 11.1332 12.4603C10.887 12.556 10.5151 12.6709 9.83391 12.7009C9.09534 12.7338 8.87383 12.7419 7.0055 12.7419C5.13718 12.7419 4.91289 12.7338 4.17699 12.7009C3.49313 12.6709 3.12385 12.556 2.87766 12.4603C2.57409 12.3482 2.29777 12.1704 2.07348 11.9379C1.84097 11.7109 1.66317 11.4374 1.55097 11.1339C1.45523 10.8877 1.34037 10.5158 1.31034 9.83481C1.27743 9.09638 1.26931 8.87481 1.26931 7.00684C1.26931 5.13887 1.27743 4.91463 1.31034 4.17898C1.34037 3.49525 1.45523 3.12603 1.55097 2.87989C1.66317 2.57627 1.84097 2.30011 2.07626 2.07576C2.30322 1.84329 2.57676 1.66552 2.88044 1.55345C3.12663 1.45773 3.49869 1.34289 4.17977 1.31276C4.91834 1.27996 5.13996 1.27174 7.00817 1.27174C8.87928 1.27174 9.10079 1.27996 9.83668 1.31276C10.5205 1.34289 10.8898 1.45773 11.136 1.55345C11.4396 1.66552 11.7159 1.84329 11.9402 2.07576C12.1727 2.30278 12.3505 2.57627 12.4627 2.87989C12.5584 3.12603 12.6733 3.49792 12.7034 4.17898C12.7362 4.9174 12.7445 5.13887 12.7445 7.00684C12.7445 8.87481 12.7362 9.0936 12.7034 9.83203Z" fill="#6A6A6A"/>
<path d="M7.00273 3.40497C5.01686 3.40497 3.40562 5.0158 3.40562 7.00139C3.40562 8.98698 5.01686 10.5978 7.00273 10.5978C8.9887 10.5978 10.5998 8.98698 10.5998 7.00139C10.5998 5.0158 8.9887 3.40497 7.00273 3.40497ZM7.00273 9.33429C5.7144 9.33429 4.66937 8.28958 4.66937 7.00139C4.66937 5.7132 5.7144 4.66848 7.00273 4.66848C8.29116 4.66848 9.33608 5.7132 9.33608 7.00139C9.33608 8.28958 8.29116 9.33429 7.00273 9.33429Z" fill="#6A6A6A"/>
<path d="M11.5819 3.26278C11.5819 3.72643 11.2059 4.10238 10.7421 4.10238C10.2783 4.10238 9.90229 3.72643 9.90229 3.26278C9.90229 2.79902 10.2783 2.42318 10.7421 2.42318C11.2059 2.42318 11.5819 2.79902 11.5819 3.26278Z" fill="#6A6A6A"/>
</svg>
