<svg width="19" height="12" viewBox="0 0 19 12" fill="none" xmlns="http://www.w3.org/2000/svg">
<path d="M19 1.6609C19 0.743674 18.1878 0 17.1862 0H1.81384C0.812155 0 0 0.743674 0 1.6609V10.3391C0 11.2563 0.812155 12 1.81384 12H17.1862C18.1878 12 19 11.2563 19 10.3391V1.6609ZM13.3884 5.111L18.0015 1.37089C18.0341 1.46026 18.0499 1.55401 18.0477 1.64809V10.3104C18.0499 10.3683 18.0454 10.4264 18.0344 10.4835L13.3884 5.111ZM17.1545 0.83045C17.2053 0.828666 17.2563 0.830774 17.3068 0.836776L10.0682 6.69356C9.72425 6.97075 9.20879 6.96978 8.86604 6.69128L1.64681 0.837749C1.69764 0.831261 1.74901 0.828828 1.8002 0.83045H17.1545ZM0.928 10.5107C0.912058 10.445 0.904973 10.3777 0.906921 10.3104V1.64809C0.904796 1.55417 0.920383 1.46059 0.952976 1.37138L5.51947 5.07775L0.928 10.5107ZM1.8002 11.128C1.71978 11.1298 1.63919 11.1219 1.56107 11.1042L6.19293 5.62662L8.2645 7.30958C8.95036 7.86624 9.9818 7.86738 10.6691 7.31218L12.7081 5.66166L17.4212 11.0975C17.3344 11.1199 17.2444 11.1301 17.1545 11.128H1.8002Z" fill="black"/>
</svg>
