<svg width="48" height="61" viewBox="0 0 48 61" fill="none" xmlns="http://www.w3.org/2000/svg">
<path d="M23.1443 0.0155256C11.1914 0.440766 1.26142 9.89611 0.114233 21.9654C-0.120139 24.3793 0.0155501 26.7181 0.434951 28.9569C0.434951 28.9569 0.471957 29.2195 0.595311 29.7198C0.965371 31.3958 1.52046 33.0217 2.21124 34.5475C4.61663 40.3258 10.1799 49.9938 22.6632 60.5122C23.428 61.1626 24.5505 61.1626 25.3277 60.5122C37.811 50.0063 43.3742 40.3383 45.792 34.535C46.4951 33.0092 47.0378 31.3958 47.4079 29.7073C47.5189 29.2195 47.5683 28.9444 47.5683 28.9444C47.852 27.4435 48 25.9052 48 24.3293C48 10.5965 36.7872 -0.47225 23.1443 0.0155256ZM23.9954 36.4361C17.5564 36.4361 12.3385 31.1456 12.3385 24.6169C12.3385 18.0882 17.5564 12.7978 23.9954 12.7978C30.4345 12.7978 35.6523 18.0882 35.6523 24.6169C35.6523 31.1456 30.4345 36.4361 23.9954 36.4361Z" fill="#FF8E3E"/>
</svg>
