<svg width="15" height="8" viewBox="0 0 15 8" fill="none" xmlns="http://www.w3.org/2000/svg">
<path d="M14.8663 7.1355C14.826 7.0724 14.5766 6.56585 13.3765 5.52472C12.1202 4.43452 12.2889 4.61154 13.8022 2.72647C14.7238 1.57842 15.0923 0.877323 14.9769 0.577604C14.8672 0.291906 14.1894 0.367274 14.1894 0.367274L11.9355 0.379543C11.9355 0.379543 11.7686 0.35851 11.6439 0.427744C11.5229 0.496101 11.4451 0.653848 11.4451 0.653848C11.4451 0.653848 11.0879 1.54249 10.6116 2.29792C9.60748 3.89204 9.20526 3.97617 9.04119 3.87714C8.6596 3.64666 8.75523 2.94994 8.75523 2.45567C8.75523 0.910625 9.00556 0.266491 8.26675 0.0999807C8.02111 0.0447692 7.8411 0.00796159 7.21386 0.00182698C6.40943 -0.00606037 5.72782 0.0044561 5.34248 0.180607C5.08558 0.298041 4.88776 0.560076 5.0087 0.574975C5.15778 0.593378 5.4953 0.659983 5.67438 0.887839C5.90596 1.18142 5.89752 1.84221 5.89752 1.84221C5.89752 1.84221 6.03065 3.66068 5.58718 3.88678C5.28247 4.0419 4.86525 3.72553 3.96988 2.27864C3.5114 1.53811 3.1645 0.7187 3.1645 0.7187C3.1645 0.7187 3.09794 0.566211 2.97887 0.484708C2.83448 0.385678 2.63197 0.354129 2.63197 0.354129L0.488683 0.366398C0.488683 0.366398 0.167097 0.375162 0.0489629 0.505741C-0.0560448 0.622299 0.0405248 0.862424 0.0405248 0.862424C0.0405248 0.862424 1.71877 4.53179 3.61829 6.38182C5.36123 8.0776 7.3395 7.9663 7.3395 7.9663H8.23581C8.23581 7.9663 8.50677 7.93825 8.64459 7.79891C8.7721 7.67096 8.76742 7.43083 8.76742 7.43083C8.76742 7.43083 8.7496 6.30645 9.30839 6.14081C9.85875 5.97781 10.5657 7.22752 11.3148 7.70864C11.8811 8.07234 12.3114 7.99259 12.3114 7.99259L14.315 7.9663C14.315 7.9663 15.3632 7.90583 14.8663 7.1355Z" fill="#6A6A6A"/>
</svg>
